<?xml version="1.0" standalone="no"?>
<!DOCTYPE svg PUBLIC "-//W3C//DTD SVG 1.1//EN" "http://www.w3.org/Graphics/SVG/1.1/DTD/svg11.dtd" >
<svg xmlns="http://www.w3.org/2000/svg" xmlns:xlink="http://www.w3.org/1999/xlink" version="1.1">
<metadata></metadata>
<defs>
<font id="larsseitthin" horiz-adv-x="1353" >
<font-face units-per-em="2048" ascent="1638" descent="-410" />
<missing-glyph horiz-adv-x="440" />
<glyph unicode="&#xfb01;" horiz-adv-x="1056" d="M12 944v80h221v207q0 127 61 201.5t163 74.5q80 0 141 -28v-84q-70 29 -141 28q-135 0 -135 -192v-207h276v-80h-276v-944h-89v944h-221zM751 1357.5q0 34.5 23 57.5q25 25 59.5 25t57.5 -25q25 -23 24.5 -57.5t-24.5 -59.5q-23 -23 -57.5 -22.5t-59.5 22.5 q-23 25 -23 59.5zM788 0v1024h89v-1024h-89z" />
<glyph horiz-adv-x="0" />
<glyph unicode="&#xd;" horiz-adv-x="681" />
<glyph unicode=" "  horiz-adv-x="440" />
<glyph unicode="&#x09;" horiz-adv-x="440" />
<glyph unicode="&#xa0;" horiz-adv-x="440" />
<glyph unicode="!" horiz-adv-x="448" d="M131 71.5q0 38.5 27 65.5q27 29 67.5 29t67.5 -29q27 -27 26.5 -65.5t-26.5 -67.5q-27 -27 -68 -27t-67 27q-27 29 -27 67.5zM180 383v1051h88v-1051h-88z" />
<glyph unicode="&#x22;" horiz-adv-x="548" d="M96 1460h101l-27 -395h-64zM360 1460h101l-27 -395h-63z" />
<glyph unicode="#" horiz-adv-x="1302" d="M31 440v82h307l78 451h-291v82h305l68 379h88l-68 -379h371l67 379h88l-67 -379h295v-82h-309l-78 -451h293v-82h-308l-77 -440h-88l77 440h-370l-78 -440h-88l78 440h-293zM426 522h371l77 451h-370z" />
<glyph unicode="$" horiz-adv-x="1075" d="M115 406h94q0 -154 80 -243t223 -102v635q-180 76 -266 158q-82 82 -82 236q0 150 90 256q88 104 258 114v168h88v-172q150 -16 236 -115.5t86 -263.5h-95q0 121 -60 198t-167 93v-608q207 -84 289 -166q86 -80 86 -223q0 -172 -101.5 -278.5t-273.5 -117.5v-168h-88v168 q-184 14 -290.5 130t-106.5 301zM258 1092q0 -113 55 -172q61 -61 199 -121v573q-121 -6 -187.5 -79.5t-66.5 -200.5zM600 59q135 12 208 96.5t73 215.5q0 98 -63.5 162.5t-217.5 128.5v-603z" />
<glyph unicode="%" horiz-adv-x="1640" d="M72 1112q0 152 92 250t235 98q139 0 232 -100q94 -96 94 -248q0 -150 -92 -248q-92 -96 -234 -96q-143 0 -235 96q-92 98 -92 248zM154 1112q0 -113 69.5 -187.5t175.5 -74.5q104 0 173 74.5t69 187.5q0 115 -67.5 190.5t-174 75.5t-176 -75.5t-69.5 -190.5zM291 0 l948 1434h111l-949 -1434h-110zM915 317q0 152 92.5 250.5t235.5 98.5q139 0 232 -101q94 -96 94 -248q0 -150 -92 -247q-92 -96 -234 -97q-143 0 -235 97q-92 98 -93 247zM997 317q0 -113 70 -187.5t176 -74.5q104 0 173 75t69 187q0 115 -67.5 191t-174 76t-176.5 -76 t-70 -191z" />
<glyph unicode="&#x26;" horiz-adv-x="1214" d="M68 365q0 127 70.5 220t219.5 185l31 18l-35 39q-150 164 -149 328q0 133 87 219t232 86q135 0 217 -83t82 -224q0 -47 -16 -109q-4 -16 -23 -45q-6 -10 -16 -26.5t-18.5 -26.5t-22.5 -24q-41 -39 -76 -64l-39 -29l-43 -28l-41 -25l-6 -4l391 -442q25 76 25 176 q0 123 -41 239l90 25q45 -111 45 -264q0 -127 -53 -250l229 -256h-121l-155 174q-145 -201 -412 -201q-201 0 -325 101q-127 102 -127 291zM162 365q0 -147 94 -227.5t264 -80.5q246 0 354 183l-428 483l-18 -12q-96 -61 -141 -99q-51 -43 -88 -108.5t-37 -138.5zM299 1155 q-2 -131 125 -272l41 -47l16 10l35 20l37 25q2 0 35 22q25 18 61 52q16 14 47 61q33 49 33 127q0 100 -55.5 161.5t-149.5 61.5q-100 0 -161.5 -59.5t-63.5 -161.5z" />
<glyph unicode="'" horiz-adv-x="284" d="M96 1460h101l-27 -395h-64z" />
<glyph unicode="(" horiz-adv-x="516" d="M113 657q0 240 75.5 440.5t231.5 397.5l65 -51q-147 -180 -217 -367q-66 -184 -65.5 -419.5t65.5 -419.5q70 -186 217 -367l-65 -51q-307 383 -307 837z" />
<glyph unicode=")" horiz-adv-x="516" d="M31 -129q150 184 215 367q68 180 67.5 419.5t-67.5 419.5q-65 183 -215 367l65 51q156 -197 231.5 -397.5t75.5 -440.5q0 -455 -307 -837z" />
<glyph unicode="*" horiz-adv-x="710" d="M23 1229l26 80l262 -86v286h84v-286l262 88l31 -78l-264 -88l170 -232l-66 -51l-170 232l-168 -232l-67 47l168 232z" />
<glyph unicode="+" horiz-adv-x="966" d="M61 674v86h377v379h90v-379h377v-86h-377v-379h-90v379h-377z" />
<glyph unicode="," horiz-adv-x="360" d="M99.5 38q-23.5 52 17.5 93q41 43 96 18t55 -86q0 -178 -129 -329l-39 18q66 104 80 230q-57 4 -80.5 56z" />
<glyph unicode="-" horiz-adv-x="747" d="M51 489v84h645v-84h-645z" />
<glyph unicode="." horiz-adv-x="372" d="M92 71.5q0 38.5 27 65.5q39 43 91 24.5t66.5 -66.5t-24.5 -91q-27 -27 -66 -27t-67 27q-27 29 -27 67.5z" />
<glyph unicode="/" horiz-adv-x="763" d="M10 0l656 1434h88l-656 -1434h-88z" />
<glyph unicode="0" horiz-adv-x="1110" d="M100 719q0 340 119 538q121 203 336 203t336 -203q119 -198 119 -538q0 -342 -119 -543q-121 -203 -336 -203t-336 203q-119 201 -119 543zM195 719q0 -303 92 -481q94 -178 268 -178.5t266 178.5q94 176 94 481t-94 479q-92 176 -266 176q-172 0 -268 -176 q-92 -174 -92 -479z" />
<glyph unicode="1" horiz-adv-x="614" d="M51 1202v80q172 0 228 27q60 29 83 125h80v-1434h-92v1202h-299z" />
<glyph unicode="2" horiz-adv-x="976" d="M113 1042q0 190 102 304t274 114q176 0 273.5 -100t97.5 -279q0 -199 -168 -422l-434 -571h643v-88h-768v70l483 639q84 113 117 193.5t33 178.5q0 293 -277 293q-127 0 -205.5 -87t-78.5 -245h-92z" />
<glyph unicode="3" horiz-adv-x="1060" d="M100 385h93q0 -162 91 -244t244 -82q141 0 229.5 84t88.5 226q0 158 -111.5 243.5t-318.5 85.5h-10v86h10q199 0 290 69t91 220q0 141 -72 221t-205 80q-131 0 -210 -83t-79 -238h-92q0 186 103.5 296.5t277.5 110.5q172 0 271 -110q100 -106 100 -277q0 -131 -62.5 -218 t-158.5 -114q113 -29 190 -127q80 -102 80 -245q0 -168 -117 -283q-113 -113 -295 -113q-197 0 -312.5 111t-115.5 301z" />
<glyph unicode="4" horiz-adv-x="1040" d="M70 330v76l610 1028h82v-1016h219v-88h-219v-330h-92v330h-600zM178 418h492v831l-54 -94z" />
<glyph unicode="5" horiz-adv-x="1073" d="M162 365h92q0 -152 83 -229t230 -77q154 0 242 101.5t88 269.5q0 158 -88 254t-242 96q-170 0 -284 -78h-80v732h710v-88h-618v-549q102 70 272 69q197 0 310 -125q115 -125 114 -311q0 -193 -114 -326q-113 -131 -310 -131q-188 0 -296.5 101.5t-108.5 290.5z" />
<glyph unicode="6" horiz-adv-x="1089" d="M121 672q0 393 112.5 590.5t350.5 197.5q160 0 262 -96t112 -260h-92q-27 270 -282 270q-186 0 -276.5 -175t-92.5 -552q39 88 143 148q100 61 215 61q195 0 307.5 -125t112.5 -311q0 -190 -112 -318q-115 -129 -308 -129t-315 138q-78 86 -107.5 219t-29.5 342zM236 420 q0 -137 94 -250q96 -111 243 -111q145 0 235.5 102.5t90.5 258.5q0 145 -92 248q-91 102 -234 102q-135 0 -237 -102q-100 -100 -100 -248z" />
<glyph unicode="7" horiz-adv-x="954" d="M84 1346v88h819v-76l-629 -1358h-100l621 1346h-711z" />
<glyph unicode="8" horiz-adv-x="1093" d="M115 377q0 133 70.5 232.5t176.5 129.5q-82 33 -139 122t-57 216q0 164 104 273q104 111 276.5 110.5t276.5 -110.5q105 -109 105 -273q0 -127 -59.5 -218t-139.5 -120q92 -33 172 -125q78 -90 78 -237q0 -176 -123 -291q-121 -113 -309.5 -113t-308.5 113 q-123 115 -123 291zM209 377q0 -143 100 -232q100 -86 237.5 -86t237.5 86q100 88 101 232q0 145 -100.5 233t-237.5 88t-237.5 -88t-100.5 -233zM260 1077q0 -133 80 -213t207 -80t207 80t80 213t-82 215q-80 82 -205 82t-207 -82q-80 -84 -80 -215z" />
<glyph unicode="9" horiz-adv-x="1089" d="M94 1014q0 190 113 317q113 129 307 129q193 0 315 -137q78 -86 108 -219t30 -342q0 -393 -112.5 -591t-350.5 -198q-160 0 -262.5 96.5t-112.5 260.5h92q29 -270 283 -271q186 0 276 174.5t92 550.5q-43 -88 -145 -147t-213 -59q-195 0 -307.5 124.5t-112.5 311.5z M188 1014q0 -147 91 -250q92 -100 235 -100q135 0 238 102q100 100 100 248q0 139 -94 248q-94 113 -244 112q-145 0 -235.5 -102.5t-90.5 -257.5z" />
<glyph unicode=":" horiz-adv-x="372" d="M92 71.5q0 38.5 27 65.5q39 43 91 24.5t66.5 -66.5t-24.5 -91q-27 -27 -66 -27t-67 27q-27 29 -27 67.5zM92 952.5q0 38.5 27 65.5q39 43 91 24.5t66.5 -66.5t-24.5 -91q-27 -27 -66 -27t-67 27q-27 29 -27 67.5z" />
<glyph unicode=";" horiz-adv-x="372" d="M92 952.5q0 38.5 27 65.5q39 43 91 24.5t66.5 -66.5t-24.5 -91q-27 -27 -66 -27t-67 27q-27 29 -27 67.5zM105.5 38q-23.5 52 17.5 93q41 43 96 18t55 -86q0 -178 -129 -329l-39 18q66 104 80 230q-57 4 -80.5 56z" />
<glyph unicode="&#x3c;" horiz-adv-x="477" d="M31 496v34l311 383h104l-323 -401l323 -399h-104z" />
<glyph unicode="=" horiz-adv-x="966" d="M61 463v86h844v-86h-844zM61 883v86h844v-86h-844z" />
<glyph unicode="&#x3e;" horiz-adv-x="477" d="M31 113l323 399l-323 401h104l311 -383v-34l-311 -383h-104z" />
<glyph unicode="?" horiz-adv-x="794" d="M2 1067q0 193 103.5 297t281.5 104q160 0 270 -104q111 -102 111 -283q0 -186 -123 -309q-20 -20 -73.5 -69.5t-78 -75t-48 -67.5t-23.5 -83v-94h-88v94q0 123 121 232q51 45 63 55t55 56t57.5 76t31 80t16.5 103q0 143 -80 224t-211 81q-141 0 -219 -81.5t-78 -235.5 h-88zM284 71.5q0 38.5 27 65.5q39 43 91.5 24.5t66.5 -66.5t-25 -91q-27 -27 -65.5 -27t-67.5 27q-27 29 -27 67.5z" />
<glyph unicode="@" horiz-adv-x="1615" d="M82 465q0 319 201 530q202 209 530 209q322 0 520 -211q201 -211 201 -528q0 -205 -77 -311.5t-195 -106.5q-74 0 -123 37t-60 98q-39 -59 -118.5 -99t-178.5 -40q-176 0 -276 117q-102 121 -103 303q0 184 104.5 303t278.5 119q102 0 182.5 -47t110.5 -117v145h82v-630 q0 -106 107 -107q180 0 180 336q0 283 -176 471q-174 186 -459 186q-289 0 -467 -186t-178 -471q0 -283 178 -471.5t467 -188.5q150 0 279 60l30 -78q-141 -63 -309 -63q-328 0 -530 210q-201 213 -201 531zM489 462.5q0 -153.5 80 -245.5t215 -92q127 0 211 82t84 221v57 q0 150 -86 234q-84 84 -205 84q-135 0 -217 -93.5t-82 -247z" />
<glyph unicode="A" d="M43 0l596 1434h76l596 -1434h-107l-184 449h-688l-182 -449h-107zM365 537h622l-285 682l-26 75l-27 -75z" />
<glyph unicode="B" horiz-adv-x="1116" d="M174 0v1434h342q197 0 311.5 -100.5t114.5 -270.5q0 -203 -180 -303q133 -41 204.5 -136.5t71.5 -226.5q0 -184 -121.5 -290.5t-336.5 -106.5h-406zM266 86h314q170 0 269 84t99 227q0 137 -99 218t-269 81h-314v-610zM266 782h264q145 0 233.5 78t88.5 203 q0 133 -90 209t-246 76h-250v-566z" />
<glyph unicode="C" horiz-adv-x="1472" d="M90 717q0 317 197 530q201 213 504 213q231 0 390.5 -108.5t223.5 -307.5h-107q-51 154 -183 242t-324 88q-262 0 -434.5 -188.5t-172.5 -468.5q0 -283 172 -471q172 -186 435 -187q193 0 324.5 88.5t182.5 241.5h107q-63 -199 -223 -307.5t-391 -108.5q-305 0 -504 211 q-197 213 -197 533z" />
<glyph unicode="D" horiz-adv-x="1484" d="M174 0v1434h496q326 0 518 -197q194 -194 194 -517q0 -333 -192 -525q-195 -195 -520 -195h-496zM266 88h404q285 0 452 168q170 170 170 461q0 289 -169.5 459t-452.5 170h-404v-1258z" />
<glyph unicode="E" horiz-adv-x="1026" d="M174 0v1434h754v-88h-662v-562h590v-88h-590v-608h662v-88h-754z" />
<glyph unicode="F" horiz-adv-x="960" d="M174 0v1434h731v-88h-639v-582h543v-88h-543v-676h-92z" />
<glyph unicode="G" horiz-adv-x="1521" d="M90 717q0 317 197 530q201 213 504 213q231 0 390.5 -108.5t223.5 -307.5h-107q-51 154 -183 242t-324 88q-262 0 -434.5 -188.5t-172.5 -468.5q0 -283 172 -471q172 -186 435 -187q256 0 401 139.5t145 409.5h-516v88h611v-67q0 -307 -168 -482q-166 -174 -473 -174 q-305 0 -504 211q-197 213 -197 533z" />
<glyph unicode="H" horiz-adv-x="1433" d="M174 0v1434h92v-650h901v650h93v-1434h-93v696h-901v-696h-92z" />
<glyph unicode="I" horiz-adv-x="440" d="M174 0v1434h92v-1434h-92z" />
<glyph unicode="J" horiz-adv-x="962" d="M59 395h93q16 -336 294 -336q129 0 199 83t70 243v1049h92v-1049q0 -199 -94.5 -305.5t-266.5 -106.5q-362 0 -387 422z" />
<glyph unicode="K" horiz-adv-x="1345" d="M193 0v1434h92v-895l727 895h118l-507 -625l675 -809h-120l-613 737l-280 -340v-397h-92z" />
<glyph unicode="L" horiz-adv-x="991" d="M172 0v1434h92v-1346h682v-88h-774z" />
<glyph unicode="M" horiz-adv-x="1763" d="M174 0v1434h86l574 -1180l47 -102l47 102l575 1180h86v-1434h-92v1225l-37 -88l-547 -1137h-63l-547 1137l-37 88v-1225h-92z" />
<glyph unicode="N" horiz-adv-x="1417" d="M174 0v1434h86l830 -1178l61 -88v1266h92v-1434h-86l-835 1188l-56 82v-1270h-92z" />
<glyph unicode="O" horiz-adv-x="1619" d="M90 719q0 317 203 530q203 211 518 211q313 0 516 -213q203 -211 203 -528q0 -322 -203 -533q-203 -213 -516 -213q-311 0 -518 213q-203 211 -203 533zM184 719q0 -283 176 -471q178 -188 451 -189q270 0 446 189q178 186 179 471q0 281 -179 467q-176 188 -446 188 q-272 0 -451 -188q-176 -188 -176 -467z" />
<glyph unicode="P" horiz-adv-x="1046" d="M174 0v1434h387q197 0 315.5 -115t118.5 -301q0 -184 -118 -297q-115 -113 -316 -113h-295v-608h-92zM266 696h295q154 0 249 88t95 234q0 147 -95 237.5t-249 90.5h-295v-650z" />
<glyph unicode="Q" horiz-adv-x="1619" d="M90 719q0 317 203 530q203 211 518 211q313 0 516 -213q203 -211 203 -528q0 -215 -98.5 -390t-270.5 -270l273 -272h-131l-232 231q-123 -45 -260 -45q-311 0 -518 213q-203 211 -203 533zM184 719q0 -283 176 -471q178 -188 451 -189q94 0 190 29l-282 283h129 l246 -246q160 80 251 238.5t91 355.5q0 281 -179 467q-176 188 -446 188q-272 0 -451 -188q-176 -188 -176 -467z" />
<glyph unicode="R" horiz-adv-x="1058" d="M174 0v1434h340q199 0 316.5 -112t117.5 -296q0 -147 -77.5 -248.5t-219.5 -136.5l359 -641h-107l-346 625h-291v-625h-92zM266 713h248q156 0 250 84t94 229t-94 232.5t-250 87.5h-248v-633z" />
<glyph unicode="S" horiz-adv-x="1038" d="M94 406h94q0 -164 93.5 -255.5t259.5 -91.5q152 0 235.5 86t83.5 226q0 109 -78 176q-78 72 -270 141q-201 84 -283 164q-86 82 -86 237.5t97 264.5q94 106 276 106q178 0 281.5 -101.5t103.5 -281.5h-94q0 139 -78 218t-213 79q-131 0 -204.5 -74.5t-73.5 -207.5 q0 -121 67 -183q74 -63 248 -137q223 -90 311 -172q90 -84 90 -229q0 -182 -112.5 -290t-300.5 -108q-207 0 -327 118t-120 315z" />
<glyph unicode="T" horiz-adv-x="1226" d="M18 1346v88h1190v-88h-549v-1346h-92v1346h-549z" />
<glyph unicode="U" horiz-adv-x="1396" d="M156 557v877h92v-877q0 -498 450 -498q221 0 336 126t115 372v877h92v-877q0 -287 -141.5 -435.5t-401.5 -148.5t-401 148.5t-141 435.5z" />
<glyph unicode="V" d="M43 1434h102l504 -1219l27 -86l26 86l506 1219h103l-596 -1434h-76z" />
<glyph unicode="W" horiz-adv-x="1994" d="M47 1434h96l394 -1170l26 -102l25 102l379 1170h61l379 -1170l25 -102l26 102l393 1170h97l-478 -1434h-71l-375 1165l-27 92l-26 -92l-375 -1165h-72z" />
<glyph unicode="X" horiz-adv-x="1357" d="M70 0l551 735l-523 699h115l465 -621l467 621h115l-525 -699l553 -735h-112l-498 659l-496 -659h-112z" />
<glyph unicode="Y" d="M39 1434h111l466 -703l60 -96l59 96l469 703h111l-592 -881v-553h-92v553z" />
<glyph unicode="Z" horiz-adv-x="1185" d="M68 0v72l907 1274h-895v88h1018v-72l-908 -1274h928v-88h-1050z" />
<glyph unicode="[" horiz-adv-x="503" d="M143 -158v1624h310v-84h-222v-1456h222v-84h-310z" />
<glyph unicode="\" horiz-adv-x="763" d="M10 1434h88l656 -1434h-88z" />
<glyph unicode="]" horiz-adv-x="503" d="M51 -74h221v1456h-221v84h309v-1624h-309v84z" />
<glyph unicode="^" horiz-adv-x="1103" d="M47 946l504 610l506 -610h-107l-399 481l-395 -481h-109z" />
<glyph unicode="_" horiz-adv-x="1300" d="M51 0h1198v-84h-1198v84z" />
<glyph unicode="`" horiz-adv-x="419" d="M20 1499h109l270 -323h-108z" />
<glyph unicode="a" horiz-adv-x="964" d="M102 240q0 225 271 286l348 76v84q0 276 -246 277q-117 0 -185.5 -64.5t-68.5 -183.5h-92q0 145 95 238.5t249 93.5q164 0 251 -93.5t87 -267.5v-686h-90v156q-47 -78 -136 -128.5t-202 -50.5q-127 0 -204 73t-77 190zM244 109.5q49 -48.5 139 -48.5q162 0 262 119 q76 94 76 213v127l-332 -76q-194 -47 -194 -202q0 -84 49 -132.5z" />
<glyph unicode="b" horiz-adv-x="1193" d="M170 0v1495h88v-670q33 84 137 154q100 68 240 68q221 0 350 -152q131 -150 131 -383t-129 -385q-125 -150 -348 -150q-133 0 -240 70q-109 72 -141 148v-195h-88zM258 467q0 -188 111 -297q113 -109 270 -109q178 0 283 125q104 125 104 326q0 197 -108.5 324 t-282.5 127q-158 0 -268 -115q-109 -115 -109 -309v-72z" />
<glyph unicode="c" horiz-adv-x="1087" d="M78 512q0 229 135 381q137 154 346 154q160 0 276.5 -79t161.5 -220h-94q-37 100 -130 157.5t-214 57.5q-166 0 -280 -129q-111 -125 -111 -322q0 -193 111 -322q115 -129 280 -129q123 0 214 56.5t128 158.5h96q-45 -141 -161.5 -220t-276.5 -79q-207 0 -346 152 q-135 154 -135 383z" />
<glyph unicode="d" horiz-adv-x="1193" d="M78 512q0 233 129 383q133 152 352 152q137 0 240 -68q104 -70 137 -154v670h88v-1495h-88v195q-35 -76 -141 -148q-106 -70 -240 -70q-221 0 -350 150q-127 152 -127 385zM168 512q0 -201 104 -326t283 -125q158 0 270 109q111 109 111 297v72q0 195 -111 309 q-108 115 -266 115q-176 0 -285 -127q-106 -125 -106 -324z" />
<glyph unicode="e" horiz-adv-x="1120" d="M78 512q0 233 129 383q129 152 338 152q215 0 341 -133.5t126 -372.5v-62h-844q6 -188 115 -303q111 -115 272 -115q129 0 218 56.5t128 158.5h96q-45 -143 -159.5 -221t-282.5 -78q-209 0 -344 148q-133 150 -133 387zM168 561h754q0 188 -101.5 295t-275.5 107 q-160 0 -264.5 -113t-112.5 -289z" />
<glyph unicode="f" horiz-adv-x="628" d="M27 944v80h206v207q0 127 65.5 201.5t178.5 74.5q80 0 141 -28v-84q-68 28 -136 28h-5q-156 0 -155 -192v-207h276v-80h-276v-944h-89v944h-206z" />
<glyph unicode="g" horiz-adv-x="978" d="M82 262q0 127 111 203q-68 92 -68 219q0 164 101.5 263.5t275.5 99.5q75 0 147 -23h355v-84h-220q94 -96 95 -256q0 -154 -103 -260q-102 -102 -274 -102q-152 0 -252 81q-78 -59 -78 -141q0 -63 46 -99t120 -36h293q156 0 234.5 -72.5t78.5 -197.5q0 -152 -105.5 -236 t-295.5 -84q-209 0 -320.5 79t-111.5 228q0 152 120 217q-66 25 -107.5 77t-41.5 124zM201 -156q0 -223 342 -223q311 0 311 236q0 86 -59.5 136t-163.5 50h-238q-82 0 -137 -54.5t-55 -144.5zM215 684q0 -125 78 -201.5t209 -76.5t208.5 76.5t77.5 201.5q0 129 -76.5 204 t-209.5 75t-210 -75t-77 -204z" />
<glyph unicode="h" horiz-adv-x="1048" d="M170 0v1495h88v-637q25 70 109 129q88 59 192 60q160 0 248 -105.5t88 -282.5v-659h-88v662q0 143 -66.5 222t-185.5 79q-131 0 -214 -103.5t-83 -271.5v-588h-88z" />
<glyph unicode="i" horiz-adv-x="448" d="M143 1357.5q0 34.5 25 57.5q25 25 57.5 25t57.5 -25q25 -23 25 -56q0 -35 -25 -61q-25 -23 -57.5 -22.5t-57.5 22.5q-25 25 -25 59.5zM180 0v1024h88v-1024h-88z" />
<glyph unicode="j" horiz-adv-x="448" d="M-96 -365q45 -14 98 -14q98 0 138 49t40 152v1202h88v-1202q0 -188 -94 -240q-74 -45 -172 -45q-55 0 -98 12v86zM143 1357.5q0 34.5 25 57.5q25 25 57.5 25t57.5 -25q25 -23 25 -56q0 -35 -25 -61q-25 -23 -57.5 -22.5t-57.5 22.5q-25 25 -25 59.5z" />
<glyph unicode="k" horiz-adv-x="942" d="M190 0v1495h89v-1014l469 543h114l-364 -418l417 -606h-104l-373 539l-159 -189v-350h-89z" />
<glyph unicode="l" horiz-adv-x="448" d="M180 0v1495h88v-1495h-88z" />
<glyph unicode="m" horiz-adv-x="1673" d="M170 0v1024h88v-166q25 72 107 129q84 59 190 60q233 0 307 -218q41 92 128 155t196 63q158 0 246 -105.5t88 -282.5v-659h-88v662q0 145 -66 223t-184 78q-125 0 -207 -99.5t-86 -259.5v-604h-88v662q0 145 -65.5 223t-184.5 78q-129 0 -211 -103.5t-82 -271.5v-588h-88 z" />
<glyph unicode="n" horiz-adv-x="1048" d="M170 0v1024h88v-166q25 70 109 129q88 60 192 60q160 0 248 -105.5t88 -282.5v-659h-88v662q0 143 -66.5 222t-185.5 79q-131 0 -214 -103.5t-83 -271.5v-588h-88z" />
<glyph unicode="o" horiz-adv-x="1159" d="M78 512q0 231 139.5 383t364.5 152q221 0 360 -152t139 -383t-139 -383t-360 -152q-225 0 -364.5 152t-139.5 383zM168 512q0 -197 113 -324q115 -127 301 -127q182 0 297 127q112 126 112 321q0 202 -112 327q-115 127 -297 127q-186 0 -301 -127q-113 -125 -113 -324z " />
<glyph unicode="p" horiz-adv-x="1218" d="M195 -440v1464h88v-195q33 74 141.5 146t239.5 72q223 0 348 -150q129 -152 129 -385q0 -236 -131 -385q-129 -150 -351 -150q-139 0 -239 68q-104 70 -137 154v-639h-88zM283 485q0 -197 108 -311q111 -113 268 -113q174 0 283 127t109 324t-104.5 324t-282.5 127 q-158 0 -271 -109q-111 -109 -110 -297v-72z" />
<glyph unicode="q" horiz-adv-x="1218" d="M78 512q0 233 127 385q129 150 350 150q131 0 239.5 -72t141.5 -146v195h88v-1464h-88v639q-33 -84 -137 -154q-102 -68 -240 -68q-221 0 -352 150q-129 152 -129 385zM168 512q0 -199 106 -324q109 -127 285 -127q160 0 266 113q111 113 111 311v72q0 188 -111 297 q-112 109 -270 109q-178 0 -282.5 -127t-104.5 -324z" />
<glyph unicode="r" horiz-adv-x="636" d="M190 0v1024h89v-190q31 86 112.5 143t200.5 57v-84q-127 0 -211 -90q-102 -109 -102 -295v-565h-89z" />
<glyph unicode="s" horiz-adv-x="890" d="M94 289h94q0 -109 71 -168.5t198 -59.5q119 0 181 56.5t62 150.5q0 84 -61 134.5t-211 91.5q-164 47 -233.5 108.5t-69.5 175.5q0 119 84 194t229 75q143 0 228.5 -79t85.5 -216h-95q0 102 -58 156.5t-165 54.5q-104 0 -161.5 -48.5t-57.5 -134.5q0 -88 49 -127 q47 -39 193 -82q182 -55 258 -121.5t76 -181.5q0 -131 -93.5 -211t-242.5 -80q-164 0 -262.5 86.5t-98.5 225.5z" />
<glyph unicode="t" horiz-adv-x="659" d="M6 940v84h215l2 266h88l-2 -266h291v-84h-291l-4 -686q0 -100 34 -142t124 -42q76 0 137 20v-82q-49 -22 -130 -22h-7q-125 0 -187 64q-60 62 -59 195v9l4 686h-215z" />
<glyph unicode="u" horiz-adv-x="1038" d="M154 365v659h88v-662q0 -145 65.5 -223t181.5 -78q129 0 210 102.5t81 272.5v588h88v-1024h-88v166q-25 -72 -106 -129q-84 -59 -189 -60q-158 0 -244.5 104.5t-86.5 283.5z" />
<glyph unicode="v" horiz-adv-x="999" d="M45 1024h94l338 -842l23 -67l22 67l338 842h94l-413 -1024h-82z" />
<glyph unicode="w" horiz-adv-x="1546" d="M45 1024h92l271 -813l22 -78l23 78l284 813h72l285 -813l22 -78l23 78l270 813h92l-340 -1024h-82l-307 862l-305 -862h-82z" />
<glyph unicode="x" horiz-adv-x="1001" d="M59 0l387 535l-354 489h109l299 -416l301 416h108l-354 -489l387 -535h-108l-334 459l-332 -459h-109z" />
<glyph unicode="y" horiz-adv-x="999" d="M45 1024h94l338 -842l23 -67l22 67l338 842h94l-592 -1464h-96l187 456z" />
<glyph unicode="z" horiz-adv-x="901" d="M72 0v72l628 868h-622v84h739v-72l-629 -868h670v-84h-786z" />
<glyph unicode="{" horiz-adv-x="522" d="M10 612v84h39q133 0 133 148v391q0 109 57.5 170t163.5 61h68v-84h-68q-133 0 -133 -147v-391q0 -143 -104 -191q104 -47 104 -188v-391q0 -147 133 -148h68v-84h-68q-106 0 -163.5 61.5t-57.5 170.5v391q0 147 -133 147h-39z" />
<glyph unicode="|" horiz-adv-x="395" d="M154 -137v1624h88v-1624h-88z" />
<glyph unicode="}" horiz-adv-x="522" d="M51 -74h68q133 0 133 148v391q0 141 104 188q-104 47 -104 191v391q0 147 -133 147h-68v84h68q106 0 163.5 -61.5t57.5 -169.5v-391q0 -147 133 -148h39v-84h-39q-133 0 -133 -147v-391q0 -109 -57.5 -170.5t-163.5 -61.5h-68v84z" />
<glyph unicode="~" horiz-adv-x="1171" d="M66 637q90 229 301 229q139 0 231 -96q98 -94 207 -94q166 0 231 178l70 -45q-90 -227 -301 -227q-137 0 -232 94q-92 96 -206 96q-166 0 -232 -178z" />
<glyph unicode="&#xa1;" horiz-adv-x="448" d="M131 952.5q0 38.5 27 65.5q27 29 67.5 29t67.5 -29q27 -27 27 -65.5t-27 -67.5q-27 -27 -68 -27t-67 27q-27 29 -27 67.5zM182 -410v1051h88v-1051h-88z" />
<glyph unicode="&#xa2;" horiz-adv-x="1087" d="M78 512q0 217 123 367q127 152 317 165v173h88v-173q143 -12 246.5 -89.5t144.5 -206.5h-94q-35 90 -113.5 146t-183.5 67v-898q104 10 182 66.5t113 146.5h96q-41 -129 -144 -206.5t-247 -89.5v-173h-88v173q-193 14 -317 163q-123 152 -123 369zM168 512 q0 -180 98 -307.5t252 -141.5v898q-152 -14 -252 -144q-98 -125 -98 -305z" />
<glyph unicode="&#xa3;" horiz-adv-x="989" d="M35 641v88h176l-29 74q-18 43 -30 82q-29 82 -29 174q0 182 104 291q104 111 269 110q166 0 261 -94t99 -268h-92q0 129 -71.5 201.5t-196.5 72.5q-133 0 -206 -83t-73 -230q0 -55 12 -109q10 -45 41 -123l37 -98h355v-88h-332q12 -78 12 -125q0 -193 -115 -369l-39 -59 h461q113 0 165 52.5t52 160.5h92q-4 -147 -84.5 -224t-224.5 -77h-577v70l75 114q104 156 105 332q0 61 -14 125h-203z" />
<glyph unicode="&#xa4;" horiz-adv-x="1236" d="M72 31l256 254q-86 106 -86 254q0 145 86 252l-256 253l55 56l256 -256q106 86 235.5 86t235.5 -86l258 256l53 -56l-256 -253q86 -104 86 -252q0 -150 -86 -254l256 -254l-53 -54l-258 254q-106 -84 -235.5 -84t-235.5 84l-256 -254zM324 539q0 -133 84 -223.5 t210 -90.5q125 0 209 90q86 90 86 223.5t-86 223.5q-82 92 -209 92t-210.5 -90t-83.5 -225z" />
<glyph unicode="&#xa5;" d="M39 1434h111l466 -703l60 -96l59 96l469 703h111l-582 -865h264v-88h-274v-151h274v-88h-274v-242h-92v242h-275v88h275v151h-275v88h262z" />
<glyph unicode="&#xa6;" horiz-adv-x="395" d="M154 -137v573h88v-573h-88zM154 913v574h88v-574h-88z" />
<glyph unicode="&#xa7;" horiz-adv-x="1011" d="M94 721q0 162 182 258q-98 70 -98 205q0 131 93 211t243 80q164 0 262 -86t98 -226h-94q0 109 -70.5 168.5t-197.5 59.5q-119 0 -181.5 -56.5t-62.5 -150.5q0 -86 63.5 -137.5t215.5 -81.5q203 -39 291 -108t88 -200q0 -158 -174 -251q131 -74 131 -220 q0 -131 -98.5 -210.5t-258.5 -79.5q-174 0 -277.5 86t-103.5 225h95q0 -109 76.5 -168t211.5 -59q127 0 196 56t69 150q0 86 -69 137.5t-230 84.5q-215 45 -307.5 113.5t-92.5 199.5zM184 721q0 -94 70 -146q65 -49 260 -90q109 -25 141 -36q180 74 181 208q0 92 -69 143.5 t-241 86.5q-84 14 -166 47q-176 -72 -176 -213z" />
<glyph unicode="&#xa8;" horiz-adv-x="544" d="M23.5 1265.5q-11.5 38.5 19.5 75.5q33 35 76 20t54 -54t-19 -76q-33 -35 -76 -19.5t-54.5 54zM371.5 1265.5q-11.5 38.5 19.5 75.5q33 35 76 20t54 -54t-19 -76q-33 -35 -76 -19.5t-54.5 54z" />
<glyph unicode="&#xa9;" horiz-adv-x="1167" d="M61.5 975q-0.5 233 143.5 383q145 151 381 151q229 0 374.5 -151.5t145.5 -383t-145.5 -383t-374.5 -151.5q-236 0 -381 152q-143 150 -143.5 383zM152 975q0 -197 118 -324q121 -127 316 -127q190 0 311 127q119 127 119 324q0 199 -119 323q-117 127 -311.5 127 t-315.5 -127q-118 -124 -118 -323zM303 975q0 129 81 213t206 84q201 0 254 -185h-94q-37 104 -160 105q-86 0 -141.5 -61.5t-55.5 -155.5t55.5 -155.5t141.5 -61.5q129 0 164 108h92q-49 -188 -256 -188q-125 0 -206 84t-81 213z" />
<glyph unicode="&#xaa;" horiz-adv-x="765" d="M106 905q0 152 199 191l242 47v57q0 174 -168 174q-78 0 -124 -41t-46 -114h-84q2 102 70.5 165.5t183.5 63.5q123 0 187.5 -63.5t64.5 -182.5v-467h-80l-2 109q-27 -53 -89.5 -88t-144.5 -35q-98 0 -153.5 49t-55.5 135zM190 909q0 -55 35 -86.5t101 -31.5q104 0 168 75 q53 66 53 140v71l-221 -45q-135 -29 -136 -123z" />
<glyph unicode="&#xab;" horiz-adv-x="874" d="M31 496v34l311 383h104l-323 -401l323 -399h-104zM428 496v34l311 383h105l-324 -401l324 -399h-105z" />
<glyph unicode="&#xac;" horiz-adv-x="1122" d="M78 768v80h966v-508h-79v428h-887z" />
<glyph unicode="&#xad;" horiz-adv-x="747" d="M51 489v84h645v-84h-645z" />
<glyph unicode="&#xae;" horiz-adv-x="1167" d="M61.5 975q-0.5 233 143.5 383q145 151 381 151q229 0 374.5 -151.5t145.5 -383t-145.5 -383t-374.5 -151.5q-236 0 -381 152q-143 150 -143.5 383zM152 975q0 -197 118 -324q121 -127 316 -127q190 0 311 127q119 127 119 324q0 199 -119 323q-117 127 -311.5 127 t-315.5 -127q-118 -124 -118 -323zM410 688v574h180q88 0 140 -48.5t52 -128.5q0 -119 -110 -157l135 -240h-98l-129 227h-84v-227h-86zM496 991h94q47 0 75.5 24.5t28.5 69.5t-27.5 71t-76.5 26h-94v-191z" />
<glyph unicode="&#xaf;" horiz-adv-x="542" d="M20 1239v84h502v-84h-502z" />
<glyph unicode="&#xb0;" horiz-adv-x="673" d="M47 1192q0 127 82 207t207 80q123 0 207 -80t84 -207t-83 -207t-208 -80t-207 80t-82 207zM137 1192q0 -90 56.5 -146.5t142.5 -56.5t143.5 56.5t57.5 146.5t-57.5 146.5t-143.5 56.5t-142.5 -56.5t-56.5 -146.5z" />
<glyph unicode="&#xb1;" horiz-adv-x="966" d="M61 215v86h844v-86h-844zM61 848v86h377v379h90v-379h377v-86h-377v-379h-90v379h-377z" />
<glyph unicode="&#xb2;" horiz-adv-x="653" d="M90 1411q0 111 66 176.5t172 65.5q111 0 172 -57.5t61 -161.5q0 -109 -102 -234l-238 -282h359v-82h-478v63l283 336q88 102 88 197q0 141 -145 141q-70 0 -111 -42t-41 -120h-86z" />
<glyph unicode="&#xb3;" horiz-adv-x="706" d="M88 1061h86q0 -80 48 -120t132 -40q76 0 123 41t47 111q0 160 -229 159h-19v76h19q102 0 150.5 34t48.5 108q0 66 -38 104.5t-107.5 38.5t-111.5 -40t-42 -116h-86q0 109 65.5 172.5t173.5 63.5q106 0 170 -61.5t64 -159.5q0 -141 -127 -181q66 -14 110.5 -68.5 t44.5 -131.5q0 -102 -71.5 -166t-184.5 -64q-123 0 -194.5 63.5t-71.5 176.5z" />
<glyph unicode="&#xb4;" horiz-adv-x="419" d="M20 1176l271 323h108l-270 -323h-109z" />
<glyph unicode="&#xb5;" horiz-adv-x="1054" d="M170 -440v1464h88v-662q0 -145 65.5 -223t182.5 -78q129 0 210 102.5t81 272.5v588h88v-1024h-88v166q-25 -72 -107 -129q-84 -59 -188 -60q-158 0 -244 103v-520h-88z" />
<glyph unicode="&#xb6;" horiz-adv-x="1179" d="M51 1038q0 176 115 285q115 111 297 111h665v-76h-186v-1522h-80v1522h-284v-1522h-80v813h-35q-182 0 -297 108.5t-115 280.5z" />
<glyph unicode="&#xb7;" horiz-adv-x="372" d="M92 532.5q0 40.5 27 67.5q29 27 67.5 27t65.5 -27q29 -27 29 -67.5t-29 -67.5q-27 -27 -66 -27t-67 27q-27 27 -27 67.5z" />
<glyph unicode="&#xb8;" horiz-adv-x="428" d="M20 -389l54 57q51 -61 137 -61q51 0 85 24.5t34 67.5q0 41 -28 65.5t-71 24.5q-39 0 -79 -12l-43 12l57 223h74l-37 -151q6 2 35 2q76 0 123 -45t47 -119q0 -76 -55.5 -123t-139.5 -47q-129 0 -193 82z" />
<glyph unicode="&#xb9;" horiz-adv-x="458" d="M63 1477v67q98 0 140.5 19.5t56.5 74.5h70v-802h-86v641h-181z" />
<glyph unicode="&#xba;" horiz-adv-x="880" d="M84 1083q0 162 98 263q102 102 258 102q158 0 256 -102q101 -101 101 -263q0 -160 -101 -260q-98 -102 -256 -102q-156 0 -258 102q-98 102 -98 260zM168 1085q0 -123 74 -206q76 -82 198.5 -82t196.5 82q76 82 76 206q0 127 -76 205q-74 82 -197 82t-198 -82 q-74 -80 -74 -205z" />
<glyph unicode="&#xbb;" horiz-adv-x="874" d="M31 113l323 399l-323 401h104l311 -383v-34l-311 -383h-104zM428 113l324 399l-324 401h104l312 -383v-34l-312 -383h-104z" />
<glyph unicode="&#xbc;" horiz-adv-x="1284" d="M63 1272v67q98 0 140.5 20t56.5 75h70v-803h-86v641h-181zM90 0l948 1434h111l-948 -1434h-111zM645 172v70l354 561h93v-553h125v-78h-125v-172h-86v172h-361zM739 250h267v420l-29 -52z" />
<glyph unicode="&#xbd;" horiz-adv-x="1372" d="M63 1272v67q98 0 140.5 20t56.5 75h70v-803h-86v641h-181zM90 0l948 1434h111l-948 -1434h-111zM809 575q0 111 66 176.5t172 65.5q111 0 172 -57.5t61 -161.5q0 -109 -102 -233l-238 -283h358v-82h-477v63l283 336q88 102 88 197q0 141 -145 141q-70 0 -111 -42 t-41 -120h-86z" />
<glyph unicode="&#xbe;" horiz-adv-x="1470" d="M88 856h86q0 -80 48 -120t132 -40q76 0 123 41t47 111q0 160 -229 160h-19v75h19q102 0 150.5 34t48.5 108q0 66 -38 104.5t-107.5 38.5t-111.5 -40t-42 -116h-86q0 109 65.5 172.5t173.5 63.5q106 0 170 -61.5t64 -159.5q0 -141 -127 -180q66 -14 110.5 -68.5 t44.5 -132.5q0 -102 -71.5 -166t-184.5 -64q-123 0 -194.5 63.5t-71.5 176.5zM276 0l949 1434h110l-948 -1434h-111zM831 172v70l355 561h92v-553h125v-78h-125v-172h-86v172h-361zM926 250h266v420l-29 -52z" />
<glyph unicode="&#xbf;" horiz-adv-x="794" d="M27 -57q0 186 123 309q20 20 73 69.5t78 75t48.5 67.5t23.5 83v94h88v-94q0 -123 -123 -232q-2 -2 -30.5 -27.5t-36 -32.5t-32 -31.5t-32.5 -37t-27.5 -38t-27 -45t-17.5 -46t-14 -54.5t-4 -58q0 -143 79.5 -224t211.5 -81q141 0 219 81.5t78 235.5h88 q0 -193 -103.5 -297t-281.5 -104q-160 0 -271 104q-111 102 -110 283zM321.5 952.5q0.5 38.5 26.5 65.5q39 43 91.5 24.5t66.5 -66.5t-25 -91q-27 -27 -65.5 -27t-67.5 27q-27 29 -26.5 67.5z" />
<glyph unicode="&#xc0;" d="M43 0l596 1434h76l596 -1434h-107l-184 449h-688l-182 -449h-107zM365 537h622l-285 682l-26 75l-27 -75zM373 1696h141l238 -201h-134z" />
<glyph unicode="&#xc1;" d="M43 0l596 1434h76l596 -1434h-107l-184 449h-688l-182 -449h-107zM365 537h622l-285 682l-26 75l-27 -75zM594 1495l237 201h142l-246 -201h-133z" />
<glyph unicode="&#xc2;" d="M43 0l596 1434h76l596 -1434h-107l-184 449h-688l-182 -449h-107zM365 537h622l-285 682l-26 75l-27 -75zM367 1495l272 201h78l270 -201h-143l-168 119l-166 -119h-143z" />
<glyph unicode="&#xc3;" d="M43 0l596 1434h76l596 -1434h-107l-184 449h-688l-182 -449h-107zM362 1509q0 98 48.5 155.5t140.5 57.5q53 0 91 -22.5t56.5 -50t45 -50t59.5 -22.5q106 0 106 127h82q0 -98 -48 -155.5t-140 -57.5q-53 0 -91 22.5t-56.5 50t-45 50t-59.5 22.5q-106 0 -107 -127h-82z M365 537h622l-285 682l-26 75l-27 -75z" />
<glyph unicode="&#xc4;" d="M43 0l596 1434h76l596 -1434h-107l-184 449h-688l-182 -449h-107zM365 537h622l-285 682l-26 75l-27 -75zM426.5 1562.5q-11.5 38.5 19.5 75.5q33 35 76 19.5t54.5 -54t-19.5 -75.5q-33 -35 -76 -19.5t-54.5 54zM775 1562.5q-11 38.5 20 75.5q33 35 75.5 19.5t54 -54 t-19.5 -75.5q-33 -35 -76 -19.5t-54 54z" />
<glyph unicode="&#xc5;" d="M43 0l596 1434h76l596 -1434h-107l-184 449h-688l-182 -449h-107zM365 537h622l-285 682l-26 75l-27 -75zM498 1661q0 74 51 123q51 51 127 51t127 -51q53 -49 53 -123t-53 -125q-51 -49 -127 -49t-127 49q-51 51 -51 125zM577.5 1661q0.5 -43 26.5 -72q29 -29 72 -28.5 t71.5 29t28.5 71.5t-28.5 71.5t-71.5 28.5t-72 -28q-27 -29 -26.5 -72z" />
<glyph unicode="&#xc6;" horiz-adv-x="1849" d="M31 0l968 1434h752v-88h-661v-562h589v-88h-589v-608h661v-88h-754v449h-551l-309 -449h-106zM504 537h493v747l-41 -70z" />
<glyph unicode="&#xc7;" horiz-adv-x="1472" d="M90 717q0 317 197 530q201 213 504 213q231 0 390.5 -108.5t223.5 -307.5h-107q-51 154 -183 242t-324 88q-262 0 -434.5 -188.5t-172.5 -468.5q0 -283 172 -471q172 -186 435 -187q193 0 324.5 88.5t182.5 241.5h107q-61 -193 -216 -301t-376 -115l-27 -112q6 2 35 2 q76 0 123 -45t47 -119q0 -76 -55 -123t-139 -47q-129 0 -193 82l53 57q51 -61 138 -61q51 0 84.5 24.5t33.5 67.5q0 41 -27.5 65.5t-70.5 24.5q-41 0 -80 -12l-43 12l47 186q-287 18 -469 226q-180 207 -180 516z" />
<glyph unicode="&#xc8;" horiz-adv-x="1026" d="M174 0v1434h754v-88h-662v-562h590v-88h-590v-608h662v-88h-754zM260 1696h141l238 -201h-133z" />
<glyph unicode="&#xc9;" horiz-adv-x="1026" d="M174 0v1434h754v-88h-662v-562h590v-88h-590v-608h662v-88h-754zM481 1495l238 201h141l-246 -201h-133z" />
<glyph unicode="&#xca;" horiz-adv-x="1026" d="M174 0v1434h754v-88h-662v-562h590v-88h-590v-608h662v-88h-754zM254 1495l272 201h78l270 -201h-143l-168 119l-166 -119h-143z" />
<glyph unicode="&#xcb;" horiz-adv-x="1026" d="M174 0v1434h754v-88h-662v-562h590v-88h-590v-608h662v-88h-754zM314.5 1562.5q-11.5 38.5 19.5 75.5q33 35 76 19.5t54 -54t-20 -75.5q-33 -35 -75.5 -19.5t-54 54zM662.5 1562.5q-11.5 38.5 19.5 75.5q33 35 76 19.5t54 -54t-19 -75.5q-33 -35 -76 -19.5t-54.5 54z" />
<glyph unicode="&#xcc;" horiz-adv-x="440" d="M-84 1696h141l238 -201h-133zM174 0v1434h92v-1434h-92z" />
<glyph unicode="&#xcd;" horiz-adv-x="440" d="M137 1495l238 201h141l-246 -201h-133zM174 0v1434h92v-1434h-92z" />
<glyph unicode="&#xce;" horiz-adv-x="440" d="M-90 1495l272 201h78l270 -201h-143l-168 119l-166 -119h-143zM174 0v1434h92v-1434h-92z" />
<glyph unicode="&#xcf;" horiz-adv-x="440" d="M-29.5 1562.5q-11.5 38.5 19.5 75.5q33 35 76 19.5t54 -54t-20 -75.5q-33 -35 -75.5 -19.5t-54 54zM174 0v1434h92v-1434h-92zM318.5 1562.5q-11.5 38.5 19.5 75.5q33 35 76 19.5t54 -54t-19 -75.5q-33 -35 -76 -19.5t-54.5 54z" />
<glyph unicode="&#xd0;" horiz-adv-x="1503" d="M-8 662v88h201v684h495q324 0 518 -197q195 -195 195 -520q0 -330 -193 -522q-195 -195 -520 -195h-495v662h-201zM285 88h403q285 0 453 168q170 170 170 461q0 289 -170 459t-453 170h-403v-596h333v-88h-333v-574z" />
<glyph unicode="&#xd1;" horiz-adv-x="1417" d="M174 0v1434h86l830 -1178l61 -88v1266h92v-1434h-86l-835 1188l-56 82v-1270h-92zM395 1509q0 98 48.5 155.5t140.5 57.5q53 0 91 -22.5t56.5 -50t45 -50t59.5 -22.5q106 0 106 127h82q0 -98 -48 -155.5t-140 -57.5q-53 0 -91 22.5t-56.5 50t-45.5 50t-59 22.5 q-106 0 -107 -127h-82z" />
<glyph unicode="&#xd2;" horiz-adv-x="1619" d="M90 719q0 317 203 530q203 211 518 211q313 0 516 -213q203 -211 203 -528q0 -322 -203 -533q-203 -213 -516 -213q-311 0 -518 213q-203 211 -203 533zM184 719q0 -283 176 -471q178 -188 451 -189q270 0 446 189q178 186 179 471q0 281 -179 467q-176 188 -446 188 q-272 0 -451 -188q-176 -188 -176 -467zM506 1716h141l238 -200h-133z" />
<glyph unicode="&#xd3;" horiz-adv-x="1619" d="M90 719q0 317 203 530q203 211 518 211q313 0 516 -213q203 -211 203 -528q0 -322 -203 -533q-203 -213 -516 -213q-311 0 -518 213q-203 211 -203 533zM184 719q0 -283 176 -471q178 -188 451 -189q270 0 446 189q178 186 179 471q0 281 -179 467q-176 188 -446 188 q-272 0 -451 -188q-176 -188 -176 -467zM727 1516l238 200h141l-246 -200h-133z" />
<glyph unicode="&#xd4;" horiz-adv-x="1619" d="M90 719q0 317 203 530q203 211 518 211q313 0 516 -213q203 -211 203 -528q0 -322 -203 -533q-203 -213 -516 -213q-311 0 -518 213q-203 211 -203 533zM184 719q0 -283 176 -471q178 -188 451 -189q270 0 446 189q178 186 179 471q0 281 -179 467q-176 188 -446 188 q-272 0 -451 -188q-176 -188 -176 -467zM500 1516l272 200h78l270 -200h-143l-168 118l-166 -118h-143z" />
<glyph unicode="&#xd5;" horiz-adv-x="1619" d="M90 719q0 317 203 530q203 211 518 211q313 0 516 -213q203 -211 203 -528q0 -322 -203 -533q-203 -213 -516 -213q-311 0 -518 213q-203 211 -203 533zM184 719q0 -283 176 -471q178 -188 451 -189q270 0 446 189q178 186 179 471q0 281 -179 467q-176 188 -446 188 q-272 0 -451 -188q-176 -188 -176 -467zM496 1530q0 98 48 155.5t140 57.5q53 0 91 -22.5t56.5 -50.5t45 -50.5t59.5 -22.5q106 0 106 127h82q0 -98 -48 -155.5t-140 -57.5q-53 0 -91 22.5t-56.5 50.5t-45 50.5t-59.5 22.5q-106 0 -106 -127h-82z" />
<glyph unicode="&#xd6;" horiz-adv-x="1619" d="M90 719q0 317 203 530q203 211 518 211q313 0 516 -213q203 -211 203 -528q0 -322 -203 -533q-203 -213 -516 -213q-311 0 -518 213q-203 211 -203 533zM184 719q0 -283 176 -471q178 -188 451 -189q270 0 446 189q178 186 179 471q0 281 -179 467q-176 188 -446 188 q-272 0 -451 -188q-176 -188 -176 -467zM560 1583q-11 39 20 76q33 35 75.5 19.5t54 -54.5t-19.5 -76q-33 -35 -76 -19.5t-54 54.5zM908.5 1583q-11.5 39 19.5 76q33 35 76 19.5t54 -54.5t-20 -76q-33 -35 -75.5 -19.5t-54 54.5z" />
<glyph unicode="&#xd7;" horiz-adv-x="823" d="M61 428l289 289l-287 287l60 61l287 -287l288 287l64 -64l-287 -288l287 -287l-62 -59l-286 286l-289 -288z" />
<glyph unicode="&#xd8;" horiz-adv-x="1619" d="M90 719q0 317 203 530q203 211 518 211q166 0 309 -65l82 153l80 -39l-84 -157q156 -98 244 -264t88 -369q0 -322 -203 -533q-203 -213 -516 -213q-168 0 -315 68l-86 -164l-80 39l88 166q-154 98 -241 266t-87 371zM184 719q0 -176 73 -322.5t204 -234.5l616 1155 q-123 57 -266 57q-272 0 -451 -188q-176 -188 -176 -467zM539 119q125 -59 272 -60q270 0 446 189q179 186 179 471q0 176 -75 321.5t-206 233.5z" />
<glyph unicode="&#xd9;" horiz-adv-x="1396" d="M156 557v877h92v-877q0 -498 450 -498q221 0 336 126t115 372v877h92v-877q0 -287 -141.5 -435.5t-401.5 -148.5t-401 148.5t-141 435.5zM395 1696h142l237 -201h-133z" />
<glyph unicode="&#xda;" horiz-adv-x="1396" d="M156 557v877h92v-877q0 -498 450 -498q221 0 336 126t115 372v877h92v-877q0 -287 -141.5 -435.5t-401.5 -148.5t-401 148.5t-141 435.5zM616 1495l238 201h141l-245 -201h-134z" />
<glyph unicode="&#xdb;" horiz-adv-x="1396" d="M156 557v877h92v-877q0 -498 450 -498q221 0 336 126t115 372v877h92v-877q0 -287 -141.5 -435.5t-401.5 -148.5t-401 148.5t-141 435.5zM389 1495l273 201h77l271 -201h-144l-168 119l-166 -119h-143z" />
<glyph unicode="&#xdc;" horiz-adv-x="1396" d="M156 557v877h92v-877q0 -498 450 -498q221 0 336 126t115 372v877h92v-877q0 -287 -141.5 -435.5t-401.5 -148.5t-401 148.5t-141 435.5zM449.5 1562.5q-11.5 38.5 19.5 75.5q33 35 76 19.5t54 -54t-19 -75.5q-33 -35 -76 -19.5t-54.5 54zM797.5 1562.5 q-11.5 38.5 19.5 75.5q33 35 76 19.5t54 -54t-19 -75.5q-33 -35 -76 -19.5t-54.5 54z" />
<glyph unicode="&#xdd;" d="M39 1434h111l466 -703l60 -96l59 96l469 703h111l-592 -881v-553h-92v553zM594 1495l237 201h142l-246 -201h-133z" />
<glyph unicode="&#xde;" horiz-adv-x="1099" d="M174 0v1434h92v-244h316q197 0 311.5 -103.5t114.5 -281.5q0 -176 -114 -277.5t-312 -101.5h-316v-426h-92zM266 514h316q156 0 246 78t90 213q0 137 -91 217t-245 80h-316v-588z" />
<glyph unicode="&#xdf;" horiz-adv-x="1081" d="M184 0v1116q1 379 353 379v-88q-137 0 -201 -67.5t-64 -223.5v-92h684v-72l-374 -534q219 -8 346 -135q125 -125 125 -295q0 -205 -125 -322t-355 -117q-76 0 -163 17l14 90q113 -23 147 -23q190 0 292 90.5t102 264.5q0 158 -112 251t-298 93h-96v53l389 555h-576v-940 h-88z" />
<glyph unicode="&#xe0;" horiz-adv-x="964" d="M102 240q0 225 271 286l348 76v84q0 276 -246 277q-117 0 -185.5 -64.5t-68.5 -183.5h-92q0 145 95 238.5t249 93.5q164 0 251 -93.5t87 -267.5v-686h-90v156q-47 -78 -136 -128.5t-202 -50.5q-127 0 -204 73t-77 190zM164 1499h108l271 -323h-109zM195 240 q0 -82 49 -130.5t139 -48.5q162 0 262 119q76 94 76 213v127l-332 -76q-195 -47 -194 -204z" />
<glyph unicode="&#xe1;" horiz-adv-x="964" d="M102 240q0 225 271 286l348 76v84q0 276 -246 277q-117 0 -185.5 -64.5t-68.5 -183.5h-92q0 145 95 238.5t249 93.5q164 0 251 -93.5t87 -267.5v-686h-90v156q-47 -78 -136 -128.5t-202 -50.5q-127 0 -204 73t-77 190zM195 240q0 -82 49 -130.5t139 -48.5q162 0 262 119 q76 94 76 213v127l-332 -76q-195 -47 -194 -204zM418 1176l270 323h109l-271 -323h-108z" />
<glyph unicode="&#xe2;" horiz-adv-x="964" d="M102 240q0 225 271 286l348 76v84q0 276 -246 277q-117 0 -185.5 -64.5t-68.5 -183.5h-92q0 145 95 238.5t249 93.5q164 0 251 -93.5t87 -267.5v-686h-90v156q-47 -78 -136 -128.5t-202 -50.5q-127 0 -204 73t-77 190zM195 240q0 -82 49 -130.5t139 -48.5q162 0 262 119 q76 94 76 213v127l-332 -76q-195 -47 -194 -204zM195 1176l272 323h33l272 -323h-108l-181 215l-180 -215h-108z" />
<glyph unicode="&#xe3;" horiz-adv-x="964" d="M102 240q0 225 271 286l348 76v84q0 276 -246 277q-117 0 -185.5 -64.5t-68.5 -183.5h-92q0 145 95 238.5t249 93.5q164 0 251 -93.5t87 -267.5v-686h-90v156q-47 -78 -136 -128.5t-202 -50.5q-127 0 -204 73t-77 190zM178 1184q0 109 48.5 171t140.5 62q53 0 91 -25.5 t56 -57t45 -57.5t59 -26q106 0 107 148h82q0 -109 -48 -171.5t-141 -62.5q-53 0 -91 26t-56 57.5t-45 57t-59 25.5q-106 0 -107 -147h-82zM195 240q0 -82 49 -130.5t139 -48.5q162 0 262 119q76 94 76 213v127l-332 -76q-195 -47 -194 -204z" />
<glyph unicode="&#xe4;" horiz-adv-x="964" d="M102 240q0 225 271 286l348 76v84q0 276 -246 277q-117 0 -185.5 -64.5t-68.5 -183.5h-92q0 145 95 238.5t249 93.5q164 0 251 -93.5t87 -267.5v-686h-90v156q-47 -78 -136 -128.5t-202 -50.5q-127 0 -204 73t-77 190zM195 240q0 -82 49 -130.5t139 -48.5q162 0 262 119 q76 94 76 213v127l-332 -76q-195 -47 -194 -204zM234.5 1265.5q-11.5 38.5 19.5 75.5q33 35 76 20t54 -54t-19 -76q-33 -35 -76 -19.5t-54.5 54zM582.5 1265.5q-11.5 38.5 19.5 75.5q33 35 76 20t54 -54t-19 -76q-33 -35 -76 -19.5t-54.5 54z" />
<glyph unicode="&#xe5;" horiz-adv-x="964" d="M102 240q0 225 271 286l348 76v84q0 276 -246 277q-117 0 -185.5 -64.5t-68.5 -183.5h-92q0 145 95 238.5t249 93.5q164 0 251 -93.5t87 -267.5v-686h-90v156q-47 -78 -136 -128.5t-202 -50.5q-127 0 -204 73t-77 190zM195 240q0 -82 49 -130.5t139 -48.5q162 0 262 119 q76 94 76 213v127l-332 -76q-195 -47 -194 -204zM289 1341q0 86 57.5 142.5t145.5 56.5q90 0 146 -56.5t56 -142.5t-56 -141t-146 -55q-88 0 -145.5 56t-57.5 140zM369 1341q0 -51 34.5 -86.5t88 -35.5t88 35.5t34.5 86.5q0 55 -33.5 90t-88.5 35q-53 0 -88 -35.5t-35 -89.5 z" />
<glyph unicode="&#xe6;" horiz-adv-x="1763" d="M102 240q0 117 67 186.5t208 99.5l344 74v86q0 276 -246 277q-117 0 -185.5 -64.5t-68.5 -183.5h-92q0 147 93 239.5t253 92.5q258 0 320 -232q133 232 393 232q215 0 341 -133.5t126 -372.5v-62h-844q6 -188 115 -303q111 -115 272 -115q129 0 218 56.5t128 158.5h96 q-45 -143 -159.5 -221t-282.5 -78q-141 0 -251.5 71t-170.5 198q-57 -133 -158.5 -201t-222.5 -68q-137 0 -215 71t-78 192zM195 240q0 -178 200 -179q156 0 250 119q76 94 76 213v125l-320 -69q-109 -25 -157.5 -74t-48.5 -135zM811 561h754q0 188 -101.5 295t-275.5 107 q-160 0 -264.5 -113t-112.5 -289z" />
<glyph unicode="&#xe7;" horiz-adv-x="1087" d="M78 512q0 229 135 381q137 154 346 154q160 0 276.5 -79t161.5 -220h-94q-37 100 -130 157.5t-214 57.5q-166 0 -280 -129q-111 -125 -111 -322q0 -193 111 -322q115 -129 280 -129q123 0 214 56.5t128 158.5h96q-43 -135 -151.5 -212.5t-257.5 -83.5l-29 -119q6 2 35 2 q76 0 123 -45t47 -119q0 -76 -55.5 -123t-139.5 -47q-129 0 -192 82l53 57q53 -61 137 -61q51 0 85 24.5t34 67.5q0 41 -27.5 65.5t-70.5 24.5q-39 0 -80 -12l-43 12l49 191q-193 14 -315 165q-121 152 -121 367z" />
<glyph unicode="&#xe8;" horiz-adv-x="1120" d="M78 512q0 233 129 383q129 152 338 152q215 0 341 -133.5t126 -372.5v-62h-844q6 -188 115 -303q111 -115 272 -115q129 0 218 56.5t128 158.5h96q-45 -143 -159.5 -221t-282.5 -78q-209 0 -344 148q-133 150 -133 387zM168 561h754q0 188 -101.5 295t-275.5 107 q-160 0 -264.5 -113t-112.5 -289zM225 1499h109l270 -323h-108z" />
<glyph unicode="&#xe9;" horiz-adv-x="1120" d="M78 512q0 233 129 383q129 152 338 152q215 0 341 -133.5t126 -372.5v-62h-844q6 -188 115 -303q111 -115 272 -115q129 0 218 56.5t128 158.5h96q-45 -143 -159.5 -221t-282.5 -78q-209 0 -344 148q-133 150 -133 387zM168 561h754q0 188 -101.5 295t-275.5 107 q-160 0 -264.5 -113t-112.5 -289zM479 1176l271 323h108l-270 -323h-109z" />
<glyph unicode="&#xea;" horiz-adv-x="1120" d="M78 512q0 233 129 383q129 152 338 152q215 0 341 -133.5t126 -372.5v-62h-844q6 -188 115 -303q111 -115 272 -115q129 0 218 56.5t128 158.5h96q-45 -143 -159.5 -221t-282.5 -78q-209 0 -344 148q-133 150 -133 387zM168 561h754q0 188 -101.5 295t-275.5 107 q-160 0 -264.5 -113t-112.5 -289zM256 1176l272 323h33l273 -323h-109l-180 215l-180 -215h-109z" />
<glyph unicode="&#xeb;" horiz-adv-x="1120" d="M78 512q0 233 129 383q129 152 338 152q215 0 341 -133.5t126 -372.5v-62h-844q6 -188 115 -303q111 -115 272 -115q129 0 218 56.5t128 158.5h96q-45 -143 -159.5 -221t-282.5 -78q-209 0 -344 148q-133 150 -133 387zM168 561h754q0 188 -101.5 295t-275.5 107 q-160 0 -264.5 -113t-112.5 -289zM310.5 1265.5q-11.5 38.5 19.5 75.5q33 35 76 20t54 -54t-20 -76q-33 -35 -75.5 -19.5t-54 54zM658.5 1265.5q-11.5 38.5 19.5 75.5q33 35 76 20t54 -54t-20 -76q-33 -35 -75.5 -19.5t-54 54z" />
<glyph unicode="&#xec;" horiz-adv-x="448" d="M-96 1499h108l271 -323h-109zM180 0v1024h88v-1024h-88z" />
<glyph unicode="&#xed;" horiz-adv-x="448" d="M158 1176l270 323h109l-271 -323h-108zM180 0v1024h88v-1024h-88z" />
<glyph unicode="&#xee;" horiz-adv-x="448" d="M-66 1176l273 323h33l272 -323h-109l-180 215l-180 -215h-109zM180 0v1024h88v-1024h-88z" />
<glyph unicode="&#xef;" horiz-adv-x="448" d="M-25.5 1265.5q-11.5 38.5 19.5 75.5q33 35 76 20t54 -54t-20 -76q-33 -35 -75.5 -19.5t-54 54zM180 0v1024h88v-1024h-88zM322.5 1265.5q-11.5 38.5 19.5 75.5q33 35 76 20t54 -54t-19 -76q-33 -35 -76 -19.5t-54.5 54z" />
<glyph unicode="&#xf0;" horiz-adv-x="1112" d="M84 469q0 211 129 350q133 139 344 139q57 0 117 -14l-199 236h-305v88h229l-192 227h117l194 -227h299v-88h-225l293 -342q78 -90 110.5 -174t32.5 -195q0 -215 -131 -352q-129 -139 -340 -140q-209 0 -342 140q-131 137 -131 352zM174 469q0 -176 105 -293 q109 -115 278.5 -115t273.5 115q107 115 107 293q0 164 -115 303q-109 102 -266 102q-170 0 -278 -114q-104 -113 -105 -291z" />
<glyph unicode="&#xf1;" horiz-adv-x="1048" d="M170 0v1024h88v-166q25 70 109 129q88 60 192 60q160 0 248 -105.5t88 -282.5v-659h-88v662q0 143 -66.5 222t-185.5 79q-131 0 -214 -103.5t-83 -271.5v-588h-88zM236 1184q0 109 48 171t140 62q53 0 91 -25.5t56.5 -57t45 -57.5t59.5 -26q106 0 106 148h82 q0 -109 -48 -171.5t-140 -62.5q-53 0 -91 26t-56.5 57.5t-45 57t-59.5 25.5q-106 0 -107 -147h-81z" />
<glyph unicode="&#xf2;" horiz-adv-x="1159" d="M78 512q0 231 139.5 383t364.5 152q221 0 360 -152t139 -383t-139 -383t-360 -152q-225 0 -364.5 152t-139.5 383zM168 512q0 -197 113 -324q115 -127 301 -127q182 0 297 127q113 127 112 324q0 199 -112 324q-115 127 -297 127q-186 0 -301 -127q-113 -125 -113 -324z M260 1499h109l270 -323h-109z" />
<glyph unicode="&#xf3;" horiz-adv-x="1159" d="M78 512q0 231 139.5 383t364.5 152q221 0 360 -152t139 -383t-139 -383t-360 -152q-225 0 -364.5 152t-139.5 383zM168 512q0 -197 113 -324q115 -127 301 -127q182 0 297 127q113 127 112 324q0 199 -112 324q-115 127 -297 127q-186 0 -301 -127q-113 -125 -113 -324z M514 1176l270 323h109l-270 -323h-109z" />
<glyph unicode="&#xf4;" horiz-adv-x="1159" d="M78 512q0 231 139.5 383t364.5 152q221 0 360 -152t139 -383t-139 -383t-360 -152q-225 0 -364.5 152t-139.5 383zM168 512q0 -197 113 -324q115 -127 301 -127q182 0 297 127q113 127 112 324q0 199 -112 324q-115 127 -297 127q-186 0 -301 -127q-113 -125 -113 -324z M291 1176l272 323h33l272 -323h-108l-180 215l-181 -215h-108z" />
<glyph unicode="&#xf5;" horiz-adv-x="1159" d="M78 512q0 231 139.5 383t364.5 152q221 0 360 -152t139 -383t-139 -383t-360 -152q-225 0 -364.5 152t-139.5 383zM168 512q0 -197 113 -324q115 -127 301 -127q182 0 297 127q113 127 112 324q0 199 -112 324q-115 127 -297 127q-186 0 -301 -127q-113 -125 -113 -324z M266 1184q0 109 48.5 171t140.5 62q53 0 91 -25.5t56.5 -57t45 -57.5t59.5 -26q106 0 106 148h82q0 -109 -48 -171.5t-140 -62.5q-53 0 -91 26t-56.5 57.5t-45.5 57t-59 25.5q-106 0 -107 -147h-82z" />
<glyph unicode="&#xf6;" horiz-adv-x="1159" d="M78 512q0 231 139.5 383t364.5 152q221 0 360 -152t139 -383t-139 -383t-360 -152q-225 0 -364.5 152t-139.5 383zM168 512q0 -197 113 -324q115 -127 301 -127q182 0 297 127q113 127 112 324q0 199 -112 324q-115 127 -297 127q-186 0 -301 -127q-113 -125 -113 -324z M330.5 1265.5q-11.5 38.5 19.5 75.5q33 35 76 20t54.5 -54t-19.5 -76q-33 -35 -76 -19.5t-54.5 54zM678.5 1265.5q-11.5 38.5 19.5 75.5q33 35 76 20t54.5 -54t-19.5 -76q-33 -35 -76 -19.5t-54.5 54z" />
<glyph unicode="&#xf7;" horiz-adv-x="966" d="M61 674v86h844v-86h-844zM387 360q-4 51 39 73t86 0t41 -73q2 -49 -41 -70.5t-86 0t-39 70.5zM387 1071q-4 51 39 72.5t86 0t41 -72.5q2 -49 -41 -70.5t-86 0t-39 70.5z" />
<glyph unicode="&#xf8;" horiz-adv-x="1159" d="M78 512q0 231 139.5 383t364.5 152q115 0 213 -46l77 146l74 -39l-80 -147q215 -152 215 -449q0 -231 -139 -383t-360 -152q-115 0 -215 43l-78 -143l-74 39l78 145q-215 145 -215 451zM168 512q0 -246 166 -373l420 787q-78 37 -172 37q-186 0 -301 -127 q-113 -125 -113 -324zM406 96q82 -35 176 -35q182 0 297 127q112 127 112 324q0 244 -166 371z" />
<glyph unicode="&#xf9;" horiz-adv-x="1038" d="M154 365v659h88v-662q0 -145 65.5 -223t181.5 -78q129 0 210 102.5t81 272.5v588h88v-1024h-88v166q-25 -72 -106 -129q-84 -59 -189 -60q-158 0 -244.5 104.5t-86.5 283.5zM197 1499h108l270 -323h-108z" />
<glyph unicode="&#xfa;" horiz-adv-x="1038" d="M154 365v659h88v-662q0 -145 65.5 -223t181.5 -78q129 0 210 102.5t81 272.5v588h88v-1024h-88v166q-25 -72 -106 -129q-84 -59 -189 -60q-158 0 -244.5 104.5t-86.5 283.5zM451 1176l270 323h108l-270 -323h-108z" />
<glyph unicode="&#xfb;" horiz-adv-x="1038" d="M154 365v659h88v-662q0 -145 65.5 -223t181.5 -78q129 0 210 102.5t81 272.5v588h88v-1024h-88v166q-25 -72 -106 -129q-84 -59 -189 -60q-158 0 -244.5 104.5t-86.5 283.5zM227 1176l273 323h32l273 -323h-109l-180 215l-180 -215h-109z" />
<glyph unicode="&#xfc;" horiz-adv-x="1038" d="M154 365v659h88v-662q0 -145 65.5 -223t181.5 -78q129 0 210 102.5t81 272.5v588h88v-1024h-88v166q-25 -72 -106 -129q-84 -59 -189 -60q-158 0 -244.5 104.5t-86.5 283.5zM267.5 1265.5q-11.5 38.5 19.5 75.5q33 35 76 20t54 -54t-20 -76q-33 -35 -75.5 -19.5t-54 54z M615.5 1265.5q-11.5 38.5 19.5 75.5q33 35 76 20t54 -54t-20 -76q-33 -35 -75.5 -19.5t-54 54z" />
<glyph unicode="&#xfd;" horiz-adv-x="999" d="M45 1024h94l338 -842l23 -67l22 67l338 842h94l-592 -1464h-96l187 456zM434 1176l271 323h108l-270 -323h-109z" />
<glyph unicode="&#xfe;" horiz-adv-x="1218" d="M195 -440v1935h88v-666q33 74 141 146t240 72q223 0 348 -150q129 -152 129 -385q0 -236 -131 -385q-129 -150 -351 -150q-139 0 -239 68q-104 70 -137 154v-639h-88zM283 485q0 -197 108 -311q111 -113 268 -113q174 0 283 127t109 324t-104.5 324t-282.5 127 q-158 0 -271 -109q-111 -109 -110 -297v-72z" />
<glyph unicode="&#xff;" horiz-adv-x="999" d="M45 1024h94l338 -842l23 -67l22 67l338 842h94l-592 -1464h-96l187 456zM250.5 1265.5q-11.5 38.5 19.5 75.5q33 35 76 20t54.5 -54t-19.5 -76q-33 -35 -76 -19.5t-54.5 54zM598.5 1265.5q-11.5 38.5 19.5 75.5q33 35 76 20t54.5 -54t-19.5 -76q-33 -35 -76 -19.5 t-54.5 54z" />
<glyph unicode="&#x152;" horiz-adv-x="2289" d="M90 719q0 317 203 530q203 211 518 211q205 0 370 -96t257 -268v338h753v-88h-661v-562h590v-88h-590v-608h661v-88h-753v338q-92 -172 -257 -268.5t-370 -96.5q-311 0 -518 213q-203 211 -203 533zM184 719q0 -283 176 -471q178 -188 451 -189q270 0 446 189 q178 186 179 471q0 281 -179 467q-176 188 -446 188q-272 0 -451 -188q-176 -188 -176 -467z" />
<glyph unicode="&#x153;" horiz-adv-x="2033" d="M78 512q0 231 139 383t365 152q158 0 276.5 -79t175.5 -216q55 137 166 216t258 79q215 0 341 -133.5t126 -372.5v-62h-844q6 -188 115 -303q111 -115 272 -115q129 0 218.5 56.5t128.5 158.5h96q-45 -143 -160 -221t-283 -78q-150 0 -265.5 78t-168.5 217 q-57 -137 -177 -216t-275 -79q-225 0 -364.5 152t-139.5 383zM168 512q0 -197 113 -324q115 -127 301 -127q182 0 297 127q113 127 112 324v18q-6 193 -119 312q-110 121 -290 121q-186 0 -301 -127q-113 -125 -113 -324zM1081 561h754q0 188 -101.5 295t-275.5 107 q-160 0 -264 -113t-113 -289z" />
<glyph unicode="&#x178;" d="M39 1434h111l466 -703l60 -96l59 96l469 703h111l-592 -881v-553h-92v553zM426.5 1562.5q-11.5 38.5 19.5 75.5q33 35 76 19.5t54.5 -54t-19.5 -75.5q-33 -35 -76 -19.5t-54.5 54zM775 1562.5q-11 38.5 20 75.5q33 35 75.5 19.5t54 -54t-19.5 -75.5q-33 -35 -76 -19.5 t-54 54z" />
<glyph unicode="&#x2c6;" horiz-adv-x="618" d="M20 1176l273 323h33l272 -323h-109l-180 215l-180 -215h-109z" />
<glyph unicode="&#x2dc;" horiz-adv-x="669" d="M20 1184q0 109 48.5 171t140.5 62q53 0 91 -25.5t56.5 -57t45 -57.5t59.5 -26q106 0 106 148h82q0 -109 -48 -171.5t-140 -62.5q-53 0 -91 26t-56.5 57.5t-45 57t-59.5 25.5q-106 0 -107 -147h-82z" />
<glyph unicode="&#x2000;" horiz-adv-x="917" />
<glyph unicode="&#x2001;" horiz-adv-x="1835" />
<glyph unicode="&#x2002;" horiz-adv-x="917" />
<glyph unicode="&#x2003;" horiz-adv-x="1835" />
<glyph unicode="&#x2004;" horiz-adv-x="611" />
<glyph unicode="&#x2005;" horiz-adv-x="458" />
<glyph unicode="&#x2006;" horiz-adv-x="305" />
<glyph unicode="&#x2007;" horiz-adv-x="305" />
<glyph unicode="&#x2008;" horiz-adv-x="229" />
<glyph unicode="&#x2009;" horiz-adv-x="367" />
<glyph unicode="&#x200a;" horiz-adv-x="101" />
<glyph unicode="&#x2010;" horiz-adv-x="747" d="M51 489v84h645v-84h-645z" />
<glyph unicode="&#x2011;" horiz-adv-x="747" d="M51 489v84h645v-84h-645z" />
<glyph unicode="&#x2012;" horiz-adv-x="747" d="M51 489v84h645v-84h-645z" />
<glyph unicode="&#x2013;" horiz-adv-x="1054" d="M51 489v84h953v-84h-953z" />
<glyph unicode="&#x2014;" horiz-adv-x="1443" d="M51 489v84h1342v-84h-1342z" />
<glyph unicode="&#x2018;" horiz-adv-x="319" d="M72 1139q6 184 129 329l39 -18q-66 -104 -80 -229q57 -4 79.5 -56.5t-18.5 -95.5q-41 -41 -95 -17.5t-54 87.5z" />
<glyph unicode="&#x2019;" horiz-adv-x="319" d="M79 1336.5q-24 52.5 17 93.5q41 43 96.5 18t55.5 -86q0 -178 -129 -330l-39 19q66 104 80 229q-57 4 -81 56.5z" />
<glyph unicode="&#x201a;" horiz-adv-x="319" d="M79 38q-24 52 17 93q41 43 96.5 18t55.5 -86q0 -178 -129 -329l-39 18q66 104 80 230q-57 4 -81 56z" />
<glyph unicode="&#x201c;" horiz-adv-x="618" d="M72 1139q6 184 129 329l39 -18q-66 -104 -80 -229q57 -4 79.5 -56.5t-18.5 -95.5q-41 -41 -95 -17.5t-54 87.5zM371 1139q6 184 129 329l39 -18q-66 -104 -80 -229q57 -4 79.5 -56.5t-18.5 -95.5q-41 -41 -95 -17.5t-54 87.5z" />
<glyph unicode="&#x201d;" horiz-adv-x="618" d="M79 1336.5q-24 52.5 17 93.5q41 43 96.5 18t55.5 -86q0 -178 -129 -330l-39 19q66 104 80 229q-57 4 -81 56.5zM378 1336.5q-24 52.5 17 93.5q41 43 96.5 18t55.5 -86q0 -178 -129 -330l-39 19q66 104 80 229q-57 4 -81 56.5z" />
<glyph unicode="&#x201e;" horiz-adv-x="638" d="M79 38q-24 52 17 93q41 43 96.5 18t55.5 -86q0 -178 -129 -329l-39 18q66 104 80 230q-57 4 -81 56zM398.5 38q-23.5 52 17.5 93q41 43 96 18t55 -86q0 -178 -129 -329l-39 18q66 104 80 230q-57 4 -80.5 56z" />
<glyph unicode="&#x2022;" horiz-adv-x="727" d="M74 530.5q0 124.5 82 206.5q84 84 206.5 84t206.5 -84t84 -206.5t-84 -206.5q-82 -82 -206.5 -82t-206.5 82t-82 206.5z" />
<glyph unicode="&#x2026;" horiz-adv-x="1138" d="M92 71.5q0 38.5 27 65.5q39 43 91 24.5t66.5 -66.5t-24.5 -91q-27 -27 -66 -27t-67 27q-27 29 -27 67.5zM475 71.5q0 38.5 27 65.5q27 29 67.5 29t67.5 -29q27 -27 27 -65.5t-27 -67.5q-27 -27 -68 -27t-67 27q-27 29 -27 67.5zM858 71.5q0 38.5 27 65.5q39 43 91 24.5 t66.5 -66.5t-24.5 -91q-27 -27 -66 -27t-67 27q-27 29 -27 67.5z" />
<glyph unicode="&#x202f;" horiz-adv-x="367" />
<glyph unicode="&#x2039;" horiz-adv-x="477" d="M31 496v34l311 383h104l-323 -401l323 -399h-104z" />
<glyph unicode="&#x203a;" horiz-adv-x="477" d="M31 113l323 399l-323 401h104l311 -383v-34l-311 -383h-104z" />
<glyph unicode="&#x205f;" horiz-adv-x="458" />
<glyph unicode="&#x20ac;" horiz-adv-x="1128" d="M31 487v88h162q-6 68 -7 144q0 76 7 147h-162v88h174q41 240 165 373t312 133q336 0 414 -336h-99q-47 250 -315 250q-152 0 -249 -109.5t-134 -310.5h358v-88h-370q-6 -72 -6 -147q0 -76 6 -144h370v-88h-358q37 -207 133 -317.5t250 -110.5q254 0 315 254h101 q-55 -176 -151.5 -258t-264.5 -82q-190 0 -314 135.5t-163 378.5h-174z" />
<glyph unicode="&#x2122;" horiz-adv-x="1243" d="M43 1354v80h436v-80h-174v-494h-86v494h-176zM553 860v574h96l189 -406l14 -37l14 37l189 406h96v-574h-86v408l-16 -45l-162 -363h-70l-162 363l-16 45v-408h-86z" />
<glyph unicode="&#x25fc;" horiz-adv-x="1024" d="M0 0v1024h1024v-1024h-1024z" />
</font>
</defs>
</svg>
