<?xml version="1.0" standalone="no"?>
<!DOCTYPE svg PUBLIC "-//W3C//DTD SVG 1.1//EN" "http://www.w3.org/Graphics/SVG/1.1/DTD/svg11.dtd" >
<svg xmlns="http://www.w3.org/2000/svg" xmlns:xlink="http://www.w3.org/1999/xlink" version="1.1">
<metadata></metadata>
<defs>
<font id="larsseitmedium" horiz-adv-x="524" >
<font-face units-per-em="2048" ascent="1638" descent="-410" />
<missing-glyph horiz-adv-x="413" />
<glyph unicode="&#xfb01;" horiz-adv-x="1212" d="M25 838v198h182v135q0 166 85 255.5t245 89.5q72 0 127 -23v-195q-61 23 -117 23q-121 0 -121 -156v-129h238v-198h-238v-838h-219v838h-182zM809 1346q0 59 40 99t99.5 40t100.5 -41t41 -98.5t-41 -96.5t-100.5 -39t-99.5 39.5t-40 96.5zM840 0v1036h217v-1036h-217z " />
<glyph horiz-adv-x="0" />
<glyph unicode="&#xd;" horiz-adv-x="681" />
<glyph unicode=" "  horiz-adv-x="413" />
<glyph unicode="&#x09;" horiz-adv-x="413" />
<glyph unicode="&#xa0;" horiz-adv-x="413" />
<glyph unicode="!" d="M117 120.5q0 61.5 41 100.5q43 41 104.5 41t104.5 -41q43 -39 43 -100.5t-43 -102.5t-104.5 -41t-104.5 41q-41 41 -41 102.5zM154 422v1012h217v-1012h-217z" />
<glyph unicode="&#x22;" horiz-adv-x="679" d="M72 1491h204l-47 -438h-141zM416 1491h205l-48 -438h-141z" />
<glyph unicode="#" horiz-adv-x="1366" d="M31 344v203h256l65 377h-227v202h264l53 308h217l-53 -308h293l53 308h217l-53 -308h219v-202h-256l-65 -377h227v-203h-264l-59 -344h-218l60 344h-293l-59 -344h-218l60 344h-219zM504 547h293l65 377h-293z" />
<glyph unicode="$" horiz-adv-x="1132" d="M94 430h232q4 -123 70.5 -188.5t187.5 -65.5q106 0 166.5 55.5t60.5 149.5q0 80 -62.5 133t-218.5 104q-205 70 -303 166q-96 96 -96 265q0 164 97.5 275.5t263.5 131.5v191h165v-193q156 -25 244 -129t96 -281h-233q-2 98 -57.5 154.5t-149.5 56.5q-90 0 -142.5 -50 t-52.5 -138t57.5 -133t213.5 -105q221 -76 315 -176q94 -94 94 -256q0 -174 -104 -285.5t-281 -131.5v-193h-165v193q-188 23 -291 142.5t-107 307.5z" />
<glyph unicode="%" horiz-adv-x="1765" d="M55 1099.5q0 157.5 101 258.5q102 102 254 102q147 0 249 -102q100 -100 101 -258q0 -156 -101 -256q-102 -102 -249 -103q-154 0 -254.5 100.5t-100.5 258zM236 1100q0 -80 49 -133.5t122.5 -53.5t122 53.5t48.5 133.5q0 82 -47.5 135t-123 53t-123.5 -53t-48 -135z M356 0l820 1434h233l-819 -1434h-234zM1006 330q0 158 100 258q102 104 254 104q147 0 250 -104q102 -102 102 -258q0 -154 -102 -256q-100 -100 -250 -101q-154 0 -254 100.5t-100 256.5zM1186 332q0 -80 49 -133.5t125 -53.5q74 0 122 53.5t48 133.5t-48 134t-122 54 q-76 0 -125 -54t-49 -134z" />
<glyph unicode="&#x26;" horiz-adv-x="1343" d="M76 383q0 129 66.5 218t203.5 169l12 8l-32 37q-133 145 -133 297q0 156 104.5 252t280.5 96q172 0 278 -92q109 -92 109 -248q0 -150 -88 -237q-74 -74 -189 -140l-4 -2l260 -282l12 55q20 119 0 231l211 11q20 -135 2 -271q-18 -106 -65 -200l262 -285h-295l-102 111 q-156 -137 -391 -138q-233 0 -367.5 110t-134.5 300zM309 389q0 -106 74 -163.5t203 -57.5q150 0 248 92l-340 371h-2q-96 -57 -139.5 -111.5t-43.5 -130.5zM420 1112q0 -37 16 -76q25 -51 88 -118l25 -29l4 2q4 2 29.5 17.5t29.5 17.5q4 4 27 18t29 19q37 37 53 66.5 t16 78.5q0 70 -43 114t-112.5 44t-115.5 -43t-46 -111z" />
<glyph unicode="'" horiz-adv-x="335" d="M72 1491h204l-47 -438h-141z" />
<glyph unicode="(" horiz-adv-x="581" d="M92 657.5q0 249.5 78 453t238 402.5l155 -106q-139 -182 -203 -352q-61 -170 -61 -397.5t61 -399.5q66 -168 203 -350l-155 -107q-160 199 -238 403t-78 453.5z" />
<glyph unicode=")" horiz-adv-x="581" d="M18 -92q139 180 201 348q63 170 64 401q0 233 -64 400q-62 170 -201 350l156 106q162 -203 240 -405.5t78 -450t-78 -450.5t-240 -406z" />
<glyph unicode="*" horiz-adv-x="729" d="M18 1200l50 150l223 -80l-6 241h157l-6 -241l221 82l52 -150l-228 -69l148 -193l-127 -92l-137 194l-136 -194l-127 92l144 188z" />
<glyph unicode="+" horiz-adv-x="966" d="M61 618v195h324v326h197v-326h323v-195h-323v-323h-197v323h-324z" />
<glyph unicode="," horiz-adv-x="425" d="M74 121q0 57 40 96t99 39q61 0 100 -42t39 -110q0 -193 -157 -374l-68 24q55 102 68 234q-55 6 -88 42t-33 91z" />
<glyph unicode="-" horiz-adv-x="747" d="M51 434v195h645v-195h-645z" />
<glyph unicode="." horiz-adv-x="432" d="M72 120.5q0 61.5 41 100.5q41 41 102 41t102 -41q43 -39 43 -100.5t-43 -102.5q-41 -41 -102 -41t-102 41t-41 102.5z" />
<glyph unicode="/" horiz-adv-x="815" d="M10 0l580 1434h215l-580 -1434h-215z" />
<glyph unicode="0" horiz-adv-x="1155" d="M84 719q0 342 129 543q129 199 364.5 198.5t364.5 -198.5q129 -201 129 -543q0 -346 -129 -547q-129 -199 -364.5 -199t-364.5 199q-129 201 -129 547zM317 719q0 -254 67 -392.5t194 -138.5t193.5 138.5t66.5 392.5t-66.5 390t-193.5 136t-194 -136t-67 -390z" />
<glyph unicode="1" horiz-adv-x="739" d="M59 1051v194q170 0 252 42.5t109 146.5h172v-1434h-230v1051h-303z" />
<glyph unicode="2" horiz-adv-x="1007" d="M88 1010q-4 207 115 327q116 123 313 123t304.5 -108.5t107.5 -296.5q0 -201 -176 -418l-336 -422h526v-215h-844v168l451 555q82 100 114.5 169t32.5 152q0 201 -184 201q-92 0 -144.5 -59.5t-50.5 -175.5h-229z" />
<glyph unicode="3" horiz-adv-x="1101" d="M84 424h229q2 -117 65.5 -176.5t176.5 -59.5q100 0 160.5 59.5t60.5 160.5q0 115 -75.5 174t-219.5 59h-63v201h61q129 0 189.5 48t60.5 152q0 94 -49 148.5t-139 54.5q-88 0 -143.5 -59.5t-55.5 -167.5h-229q0 205 115.5 323.5t310 118.5t309.5 -117q113 -113 113 -292 q0 -115 -53.5 -195t-137.5 -111q106 -31 173 -120.5t67 -225.5q0 -193 -127 -309q-125 -117 -334 -117q-217 0 -341 119t-124 332z" />
<glyph unicode="4" horiz-adv-x="1138" d="M53 276v187l551 971h281v-951h192v-207h-192v-276h-232v276h-600zM299 481h358v647l-41 -84z" />
<glyph unicode="5" horiz-adv-x="1099" d="M111 403h231q2 -106 61.5 -160.5t163.5 -54.5q106 0 167 71t61 192q0 119 -61.5 185t-172.5 66q-115 0 -205 -59h-204v791h800v-215h-567v-357q84 47 215 47q195 0 310.5 -118.5t115.5 -329.5q0 -221 -125 -355q-123 -133 -336 -133t-333.5 113t-120.5 317z" />
<glyph unicode="6" horiz-adv-x="1130" d="M94 684q0 389 123 582.5t379 193.5q180 0 299 -114q119 -113 127 -299h-234q-14 199 -200 198q-129 0 -193.5 -114.5t-68.5 -362.5q43 55 118.5 90t163.5 35q201 0 322 -127t121 -322q0 -211 -129 -342q-127 -129 -332 -129q-223 0 -350 146q-145 170 -146 565zM340 442 q0 -104 68 -180q68 -78 174 -78q104 0 168.5 73t64.5 183q0 106 -65.5 177t-167.5 71q-98 0 -170 -67q-68 -66 -72 -168v-11z" />
<glyph unicode="7" horiz-adv-x="1017" d="M76 1217v217h870v-187l-553 -1247h-250l541 1217h-608z" />
<glyph unicode="8" horiz-adv-x="1128" d="M94 401q0 121 57.5 208t151.5 126q-72 41 -118 123t-46 189q0 174 117 292q121 121 309 121q186 0 307 -121q119 -119 119 -292q0 -106 -47 -189.5t-119 -122.5q209 -102 209 -334q0 -184 -135 -307q-137 -121 -334 -121q-199 0 -336 121q-135 123 -135 307zM326 407.5 q0 -100.5 68.5 -162t171 -61.5t169 61.5t66.5 162t-68 164t-168 63.5q-102 0 -170.5 -63.5t-68.5 -164zM365 1040q0 -92 55 -147t145 -55q88 0 143.5 55t55.5 147.5t-56.5 149.5t-142.5 57q-90 0 -145 -56t-55 -151z" />
<glyph unicode="9" horiz-adv-x="1130" d="M78 989q0 209 127 340q129 131 334 131q223 0 350 -145q145 -170 145 -565q0 -389 -123 -583t-379 -194q-182 0 -301 113q-115 113 -125 301h234q14 -199 201 -199q129 0 193.5 114t68.5 362q-43 -55 -119 -89t-164 -34q-205 0 -323.5 125t-118.5 323zM313 993 q0 -106 66 -177t168 -71q100 0 170 70q72 72 71 176q0 102 -67.5 180t-173.5 78q-104 0 -169 -72.5t-65 -183.5z" />
<glyph unicode=":" horiz-adv-x="432" d="M72 120.5q0 61.5 41 100.5q41 41 102 41t102 -41q43 -39 43 -100.5t-43 -102.5q-41 -41 -102 -41t-102 41t-41 102.5zM72 913q0 61 41 103.5t102 42.5t103 -42.5t42 -103.5q0 -59 -42 -100t-103 -41t-102 41t-41 100z" />
<glyph unicode=";" horiz-adv-x="432" d="M72 913q0 61 41 103.5t102 42.5t103 -42.5t42 -103.5q0 -59 -42 -100t-103 -41t-102 41t-41 100zM76 121q0 57 40 96t99 39q61 0 101 -42t40 -110q0 -195 -159 -374l-66 24q53 94 68 234q-55 6 -89 42t-34 91z" />
<glyph unicode="&#x3c;" horiz-adv-x="552" d="M25 496v34l290 383h211l-301 -401l301 -399h-211z" />
<glyph unicode="=" horiz-adv-x="966" d="M61 408v192h844v-192h-844zM61 831v191h844v-191h-844z" />
<glyph unicode="&#x3e;" horiz-adv-x="552" d="M25 113l303 399l-303 401h213l288 -383v-34l-288 -383h-213z" />
<glyph unicode="?" horiz-adv-x="876" d="M6 1053q4 195 121 301q119 110 301 110q178 0 299 -104.5t121 -288.5q0 -195 -113 -311q-23 -23 -70 -67t-71.5 -69.5t-46 -64.5t-21.5 -76v-61h-219v70q0 141 117 243q10 8 48 42t52.5 48.5t42 46t39.5 56t22.5 61.5t10.5 76q0 104 -56.5 162.5t-150.5 58.5 q-104 0 -161.5 -61.5t-57.5 -171.5h-207zM272 120.5q0 61.5 41 100.5q43 41 104.5 41t102.5 -41q43 -39 43 -100.5t-43 -102.5q-41 -41 -102.5 -41t-104.5 41q-41 41 -41 102.5z" />
<glyph unicode="@" horiz-adv-x="1673" d="M74 492q0 338 211 548q213 213 555 213q344 0 551 -215q208 -214 208 -546q0 -217 -94 -318q-92 -102 -221 -102q-160 0 -217 125q-98 -127 -281 -127q-170 0 -276.5 118.5t-106.5 301t107 301.5q109 121 270 120q184 0 264 -139l11 121h159v-569q0 -61 21.5 -89 t71.5 -28q143 0 143 285q0 270 -168 444q-166 176 -442 176q-283 0 -451 -174t-168 -446q0 -274 168 -448.5t451 -174.5q150 0 278 61l49 -135q-143 -66 -327 -65q-346 0 -557 215q-209 211 -209 547zM592 489q0 -111 61.5 -179t157.5 -68t160.5 62.5t64.5 168.5v29 q0 109 -64.5 175t-156.5 66q-100 0 -161.5 -70.5t-61.5 -183.5z" />
<glyph unicode="A" horiz-adv-x="1445" d="M33 0l567 1434h246l567 -1434h-252l-137 350h-604l-135 -350h-252zM496 557h454l-202 512l-27 78l-27 -78z" />
<glyph unicode="B" horiz-adv-x="1193" d="M154 0v1434h424q213 0 336.5 -107.5t123.5 -290.5q0 -188 -141 -288q106 -41 165.5 -128.5t59.5 -203.5q0 -190 -131 -303q-127 -113 -348 -113h-489zM383 215h260q113 0 177.5 54.5t64.5 152.5q0 96 -64.5 149.5t-177.5 53.5h-260v-410zM383 829h201q100 0 159.5 52.5 t59.5 138.5q0 96 -59.5 147.5t-165.5 51.5h-195v-390z" />
<glyph unicode="C" horiz-adv-x="1499" d="M78 716.5q0 319.5 201 532.5q199 211 512 211q254 0 419.5 -123t227.5 -346h-254q-92 254 -393 254q-209 0 -340 -149q-131 -145 -132 -379q0 -229 131.5 -379t344.5 -150q307 0 401 265h246q-61 -231 -226 -355.5t-421 -124.5q-313 0 -516 211q-201 213 -201 532.5z" />
<glyph unicode="D" horiz-adv-x="1497" d="M154 0v1434h524q334 0 532 -199q201 -197 201 -518q0 -324 -200.5 -520.5t-532.5 -196.5h-524zM383 215h295q233 0 365.5 132t132.5 369.5t-131 370t-367 132.5h-295v-1004z" />
<glyph unicode="E" horiz-adv-x="1052" d="M154 0v1434h804v-215h-575v-375h502v-213h-502v-416h575v-215h-804z" />
<glyph unicode="F" horiz-adv-x="995" d="M154 0v1434h790v-215h-561v-394h477v-215h-477v-610h-229z" />
<glyph unicode="G" horiz-adv-x="1552" d="M78 716.5q0 319.5 201 532.5q199 211 512 211q254 0 419.5 -123t227.5 -346h-254q-92 254 -396 254q-207 0 -337 -149q-131 -145 -132 -379q0 -229 131.5 -379t346.5 -150q186 0 294.5 90.5t116.5 260.5h-389v215h633v-111q0 -313 -178 -491q-176 -178 -477 -179 q-315 0 -518 211q-201 213 -201 532.5z" />
<glyph unicode="H" horiz-adv-x="1458" d="M154 0v1434h229v-584h692v584h230v-1434h-230v633h-692v-633h-229z" />
<glyph unicode="I" horiz-adv-x="536" d="M154 0v1434h229v-1434h-229z" />
<glyph unicode="J" horiz-adv-x="1052" d="M53 453h230q12 -256 215 -256q92 0 141 62.5t49 176.5v998h230v-1010q0 -215 -109 -328.5t-311 -113.5q-215 0 -327 122.5t-118 348.5z" />
<glyph unicode="K" horiz-adv-x="1384" d="M162 0v1434h229v-772l565 772h283l-467 -637l578 -797h-277l-457 612l-225 -286v-326h-229z" />
<glyph unicode="L" horiz-adv-x="1048" d="M152 0v1434h229v-1219h620v-215h-849z" />
<glyph unicode="M" horiz-adv-x="1806" d="M154 0v1434h258l454 -994l35 -88l39 88l455 994h260v-1434h-230v995l-41 -116l-387 -879h-190l-385 879l-39 116v-995h-229z" />
<glyph unicode="N" horiz-adv-x="1474" d="M154 0v1434h225l653 -953l62 -96v1049h229v-1434h-227l-658 954l-55 90v-1044h-229z" />
<glyph unicode="O" horiz-adv-x="1632" d="M78 719q0 319 207 530q209 211 532.5 211t528.5 -211q206 -210 206 -527q0 -325 -206 -538q-205 -211 -528.5 -211t-532.5 211q-207 213 -207 535zM319 718.5q0 -231.5 137.5 -381t360.5 -149.5q221 0 358.5 149.5t137.5 381t-137 377.5q-136 149 -356 149h-3 q-223 0 -360 -149q-138 -146 -138 -377.5z" />
<glyph unicode="P" horiz-adv-x="1128" d="M154 0v1434h440q221 0 352 -125q133 -127 133 -326q0 -197 -133 -324q-130 -122 -348 -122h-4h-211v-537h-229zM383 752h211q117 0 184.5 61t67.5 170q0 111 -67.5 173.5t-184.5 62.5h-211v-467z" />
<glyph unicode="Q" horiz-adv-x="1622" d="M78 719q0 319 207 530q209 211 532.5 211t528.5 -211q206 -210 206 -527q0 -359 -241 -570l362 -365h-319l-242 242q-145 -55 -295 -56q-324 0 -532 211q-207 213 -207 535zM319 718.5q0 -231.5 137.5 -381t360.5 -149.5q63 0 119 13l-244 239h322l133 -129 q166 152 166 408q0 231 -137 377q-136 149 -356 149h-3q-223 0 -360 -149q-138 -146 -138 -377.5z" />
<glyph unicode="R" horiz-adv-x="1153" d="M154 0v1434h413q219 0 353 -123q133 -121 133 -320q0 -137 -69 -239.5t-191 -151.5l321 -600h-262l-299 561h-170v-561h-229zM383 766h184q117 0 184.5 58.5t67.5 167t-67.5 168t-184.5 59.5h-184v-453z" />
<glyph unicode="S" horiz-adv-x="1101" d="M80 430h231q4 -123 71 -188.5t187 -65.5q106 0 167 55.5t61 149.5q0 80 -62.5 133t-218.5 104q-205 70 -303 166q-96 96 -96 265q0 180 116 294q117 117 316 117t312.5 -107.5t121.5 -308.5h-233q-2 98 -58.5 154.5t-148.5 56.5q-90 0 -142.5 -50t-52.5 -138t57.5 -133 t212.5 -105q221 -76 316 -176q94 -94 94 -256q0 -197 -129 -311q-127 -113 -332 -113q-229 0 -356 122t-131 335z" />
<glyph unicode="T" horiz-adv-x="1251" d="M23 1219v215h1206v-215h-490v-1219h-229v1219h-487z" />
<glyph unicode="U" horiz-adv-x="1413" d="M135 571v863h230v-863q0 -383 342 -383q340 0 340 383v863h231v-863q0 -287 -149.5 -442.5t-422 -155.5t-422 156t-149.5 442z" />
<glyph unicode="V" horiz-adv-x="1411" d="M29 1434h245l402 -1020l29 -97l30 97l402 1020h245l-569 -1434h-213z" />
<glyph unicode="W" horiz-adv-x="2035" d="M35 1434h244l303 -983l22 -105l21 105l290 983h205l293 -983l19 -105l22 105l305 983h242l-447 -1434h-235l-279 918l-22 96l-21 -96l-278 -918h-238z" />
<glyph unicode="X" horiz-adv-x="1415" d="M51 0l500 729l-481 705h272l365 -531l368 531h273l-484 -705l502 -729h-272l-387 557l-383 -557h-273z" />
<glyph unicode="Y" horiz-adv-x="1392" d="M25 1434h268l350 -555l51 -97l54 97l352 555h268l-555 -895v-539h-233v539z" />
<glyph unicode="Z" horiz-adv-x="1218" d="M80 0v186l745 1033h-739v215h1030v-187l-739 -1032h766v-215h-1063z" />
<glyph unicode="[" horiz-adv-x="626" d="M143 -158v1624h432v-198h-225v-1227h225v-199h-432z" />
<glyph unicode="\" horiz-adv-x="815" d="M10 1434h215l580 -1434h-215z" />
<glyph unicode="]" horiz-adv-x="626" d="M51 41h225v1227h-225v198h432v-1624h-432v199z" />
<glyph unicode="^" horiz-adv-x="1103" d="M35 946l516 615l518 -615h-227l-291 346l-287 -346h-229z" />
<glyph unicode="_" horiz-adv-x="1300" d="M51 0h1198v-195h-1198v195z" />
<glyph unicode="`" horiz-adv-x="538" d="M20 1499h275l223 -323h-194z" />
<glyph unicode="a" horiz-adv-x="1032" d="M88 272q0 248 303 306l295 53v47q0 186 -170 186q-82 0 -134 -45t-52 -119h-211q6 154 114.5 256.5t282.5 102.5q184 0 286.5 -97.5t102.5 -279.5v-682h-192l-11 135q-92 -158 -305 -158q-141 0 -225 80t-84 215zM307 283q0 -53 37 -85t105 -32q125 0 188 100 q49 70 49 164v37l-248 -53q-131 -27 -131 -131z" />
<glyph unicode="b" horiz-adv-x="1247" d="M150 0v1495h217v-588q47 68 133 110t194 42q213 0 348 -156q135 -154 136 -385q0 -231 -136 -387q-135 -154 -346 -154q-229 0 -342 168l-16 -145h-188zM362 510q0 -150 87 -240q88 -88 208 -88q131 0 214 93.5t83 242.5q0 147 -84 240.5t-215 93.5q-115 0 -204 -92 q-88 -88 -89 -240v-10z" />
<glyph unicode="c" horiz-adv-x="1126" d="M70 516q0 238 143 389q146 154 367 154q186 0 311 -96.5t158 -270.5h-213q-27 80 -93.5 123t-158.5 43q-123 0 -207 -96q-82 -94 -82 -246q0 -147 82 -242q84 -96 211 -96q90 0 157.5 45t90.5 119h215q-37 -174 -164 -269.5t-307 -95.5q-223 0 -366.5 149.5t-143.5 389.5 z" />
<glyph unicode="d" horiz-adv-x="1247" d="M70 518q0 231 135 385q137 156 348 156q221 0 330 -152v588h217v-1495h-191l-14 145q-117 -168 -344 -168q-211 0 -346 154q-135 156 -135 387zM295 518q0 -150 82 -243t213 -93q121 0 207 88q88 88 88 240v10q0 152 -88 240q-88 92 -205 92q-129 0 -213 -93t-84 -241z " />
<glyph unicode="e" horiz-adv-x="1138" d="M70 516q0 238 139 389q139 154 366 154q217 0 346.5 -139.5t129.5 -393.5v-84h-756q8 -125 87 -198.5t200 -73.5q188 0 247 147h213q-49 -164 -168.5 -252t-298.5 -88q-225 0 -366 148q-139 150 -139 391zM297 612h534q-2 117 -72.5 186.5t-185 69.5t-190.5 -70.5 t-86 -185.5z" />
<glyph unicode="f" horiz-adv-x="704" d="M31 838v198h176v135q0 166 88 255.5t252 89.5q82 0 137 -23v-195q-61 23 -117 23q-141 0 -141 -156v-129h248v-198h-248v-838h-219v838h-176z" />
<glyph unicode="g" horiz-adv-x="1048" d="M74 260q0 133 106 215q-67 93 -67 210q0 165 112 269q115 104 295 105q74 0 148 -23h383v-188h-166q35 -80 35 -160q0 -158 -111 -262q-113 -102 -289 -102q-109 0 -201 41q-32 -32 -32 -86q0 -48 31.5 -73.5t87.5 -25.5h260q160 0 245.5 -75.5t85.5 -213.5 q0 -166 -118.5 -260t-323.5 -94q-223 0 -342 83t-119 237q0 123 111 186q-131 76 -131 217zM309 -129q0 -158 246 -158q229 0 229 166q0 125 -168 125h-178q-59 -4 -94 -39t-35 -94zM326 688q0 -82 53 -136t139 -54q84 0 137.5 54t53.5 136q0 86 -52.5 139.5t-138.5 53.5 q-88 0 -140 -53.5t-52 -139.5z" />
<glyph unicode="h" horiz-adv-x="1107" d="M150 0v1495h217v-580q80 143 272 144q160 0 248 -104.5t88 -282.5v-672h-219v629q0 106 -46 161.5t-130 55.5q-96 0 -154.5 -78t-58.5 -217v-551h-217z" />
<glyph unicode="i" d="M123 1346q0 59 41 99t98 40h10q54 0 92 -41q41 -43 41 -95q0 -56 -43 -100q-45 -37 -100 -38h-3q-53 0 -96 38q-40 36 -40 87v10zM154 0v1036h217v-1036h-217z" />
<glyph unicode="j" d="M-109 -248q55 -16 115 -16q78 0 113 46t35 142v1112h217v-1118q0 -381 -328 -381q-96 0 -152 19v196zM123 1346q0 59 41 99t98 40h10q52 0 92 -41q41 -43 41 -95q0 -55 -43 -100q-45 -37 -100 -38h-3q-53 0 -96 38q-40 36 -40 87v10z" />
<glyph unicode="k" horiz-adv-x="1060" d="M158 0v1495h217v-915l348 456h262l-319 -432l372 -604h-247l-279 436l-137 -170v-266h-217z" />
<glyph unicode="l" d="M154 0v1495h217v-1495h-217z" />
<glyph unicode="m" horiz-adv-x="1705" d="M150 0v1036h188l16 -139q86 162 281 162q223 0 299 -193q100 193 307 193q160 0 246 -103.5t86 -283.5v-672h-217v629q0 217 -174 217q-94 0 -153.5 -79t-59.5 -216v-551h-217v629q0 217 -174 217q-96 0 -153.5 -78t-57.5 -217v-551h-217z" />
<glyph unicode="n" horiz-adv-x="1107" d="M150 0v1036h188l16 -139q86 162 285 162q160 0 248 -104.5t88 -282.5v-672h-219v629q0 106 -46 161.5t-130 55.5q-96 0 -154.5 -78t-58.5 -217v-551h-217z" />
<glyph unicode="o" horiz-adv-x="1206" d="M69 518q0 239 150 389q152 152 383.5 152t383 -151.5t151.5 -389t-151.5 -389.5t-383 -152t-383.5 152q-150 150 -150 389zM295 518.5q0 -149.5 86 -244.5q86 -96 223 -96t221 96q86 94 86 244t-86 244q-84 96 -221 96t-223 -96q-86 -94 -86 -243.5z" />
<glyph unicode="p" horiz-adv-x="1259" d="M160 -440v1476h190l15 -147q115 170 342 170q213 0 348 -156q135 -154 135 -385t-137 -387q-135 -154 -346 -154q-111 0 -197 42t-131 110v-569h-219zM373 514q4 -152 88 -242q90 -90 205 -90q131 0 213 94q86 96 86 242q0 150 -83 243t-214 93q-117 0 -207 -90 q-88 -88 -88 -238v-12z" />
<glyph unicode="q" horiz-adv-x="1259" d="M70 518q0 231 135 385q135 156 346 156q223 0 344 -170l14 147h191v-1476h-217v569q-109 -152 -330 -152q-209 0 -348 154q-135 156 -135 387zM295 518q0 -147 84 -241.5t213 -94.5q115 0 205 90q88 90 88 242v12q0 150 -88 238q-90 90 -207 90q-131 0 -213 -93t-82 -243 z" />
<glyph unicode="r" horiz-adv-x="722" d="M158 0v1036h190l19 -176q31 84 108.5 135.5t196.5 51.5v-220q-129 0 -207 -69q-86 -72 -90 -219v-539h-217z" />
<glyph unicode="s" horiz-adv-x="921" d="M74 313h219q2 -72 48 -111.5t128 -39.5q74 0 115 32.5t41 88.5q0 61 -43 93t-160 56q-168 35 -246 106.5t-78 194.5q0 135 95 230q96 96 266 96q154 0 254 -90q100 -88 104 -238h-217q-2 141 -145 141q-66 0 -102 -32.5t-36 -88t39 -84t150 -53.5q182 -37 260 -109.5 t78 -201.5q0 -152 -104.5 -239t-274.5 -87q-180 0 -283.5 90.5t-107.5 245.5z" />
<glyph unicode="t" horiz-adv-x="743" d="M25 836v200h182l2 254h219l-2 -254h252v-200h-254l-4 -492q0 -88 30.5 -124t110.5 -36q63 0 117 17v-193q-58 -22 -152 -22h-8q-162 0 -240 76q-76 74 -75 227v8l4 539h-182z" />
<glyph unicode="u" horiz-adv-x="1101" d="M135 365v671h217v-628q0 -219 174 -220q94 0 151.5 75t57.5 206v567h217v-1036h-190l-14 139q-80 -162 -281 -162q-162 0 -247 102.5t-85 285.5z" />
<glyph unicode="v" horiz-adv-x="1040" d="M27 1036h233l240 -694l20 -84l21 84l241 694h234l-385 -1036h-219z" />
<glyph unicode="w" horiz-adv-x="1585" d="M27 1036h233l189 -678l20 -102l23 102l206 678h189l207 -678l22 -102l21 102l188 678h234l-322 -1036h-223l-223 680l-228 -680h-215z" />
<glyph unicode="x" horiz-adv-x="1067" d="M41 0l344 530l-326 506h254l219 -336l222 336h254l-326 -506l344 -530h-256l-238 362l-235 -362h-256z" />
<glyph unicode="y" horiz-adv-x="1048" d="M27 1036h233l240 -694l20 -84l21 84l241 694h234l-549 -1476h-227l166 454z" />
<glyph unicode="z" horiz-adv-x="958" d="M72 0v164l512 680h-508v192h798v-166l-512 -677h541v-193h-831z" />
<glyph unicode="{" horiz-adv-x="626" d="M31 559v191h30q133 0 134 147v229q0 162 83.5 251t243.5 89h53v-198h-47q-133 0 -133 -148v-256q0 -166 -125 -211q125 -45 125 -209v-256q0 -147 133 -147h47v-199h-53q-160 0 -243.5 89t-83.5 251v230q0 147 -134 147h-30z" />
<glyph unicode="|" horiz-adv-x="466" d="M133 -137v1624h205v-1624h-205z" />
<glyph unicode="}" horiz-adv-x="626" d="M51 41h47q133 0 133 147v256q0 164 125 209q-125 45 -125 211v256q0 147 -133 148h-47v198h53q160 0 245 -89t85 -251v-229q0 -147 133 -147h29v-191h-29q-133 0 -133 -147v-230q0 -162 -85 -251t-245 -89h-53v199z" />
<glyph unicode="~" horiz-adv-x="1165" d="M47 625q82 290 332 290q68 0 129 -27.5t96 -68.5q94 -94 187 -94q133 0 178 168l149 -70q-82 -291 -332 -291q-133 0 -227 95q-92 96 -184 96q-129 0 -178 -168z" />
<glyph unicode="&#xa1;" d="M113 911.5q0 61.5 43 102.5t104.5 41t101.5 -41q43 -41 43 -102.5t-43 -102.5q-41 -39 -102 -39t-104 39q-43 41 -43 102.5zM152 -401v1011h217v-1011h-217z" />
<glyph unicode="&#xa2;" horiz-adv-x="1126" d="M70 516q0 215 118 361q121 150 312 176v194h168v-194q152 -23 252 -116t129 -245h-213q-27 80 -93.5 123t-158.5 43q-123 0 -207 -96q-82 -94 -82 -246q0 -147 82 -242q84 -96 211 -96q90 0 157.5 45t90.5 119h215q-35 -152 -135.5 -245t-247.5 -113v-197h-168v197 q-190 27 -312 172q-119 143 -118 360z" />
<glyph unicode="&#xa3;" horiz-adv-x="1064" d="M35 602v166h158q-70 176 -70 276q0 188 117 302q119 115 299 114q190 0 299.5 -106.5t113.5 -302.5h-209q0 94 -53 151.5t-143 57.5q-92 0 -144.5 -58.5t-52.5 -163.5q0 -25 8.5 -71.5t8.5 -51.5l24 -73q2 -4 9.5 -21.5t13.5 -33t8 -19.5h297v-166h-250q6 -43 6 -92 q0 -129 -72 -244l-28 -49h307q86 0 125 41t39 129h203q-2 -188 -99.5 -287.5t-277.5 -99.5h-621v70l86 118q115 152 115 328q0 39 -8 86h-209z" />
<glyph unicode="&#xa4;" horiz-adv-x="1312" d="M53 72l248 245q-59 96 -59 217t59 218l-248 245l144 142l245 -246q100 61 213 61q100 0 213 -63l250 248l139 -142l-245 -245q61 -100 61 -217q0 -121 -63 -218l247 -245l-139 -140l-252 246q-100 -57 -211 -57q-113 0 -209 57l-249 -246zM428 535q0 -104 64.5 -174 t163 -70t165 69.5t66.5 174.5q0 106 -66.5 177.5t-165 71.5t-163 -71.5t-64.5 -177.5z" />
<glyph unicode="&#xa5;" horiz-adv-x="1359" d="M10 1434h269l350 -555l51 -97l53 97l352 555h269l-469 -756h178v-166h-264v-145h264v-166h-264v-201h-234v201h-270v166h270v145h-270v166h184z" />
<glyph unicode="&#xa6;" horiz-adv-x="466" d="M133 -137v573h205v-573h-205zM133 913v574h205v-574h-205z" />
<glyph unicode="&#xa7;" horiz-adv-x="1052" d="M74 676q0 162 164 260q-98 72 -99 215q0 156 111 240q112 84 278 84q180 0 287 -88.5t111 -237.5h-221q-2 76 -49.5 117t-129.5 41q-78 0 -121 -39t-43 -102.5t50.5 -101.5t173.5 -60q211 -35 304 -108t93 -206q0 -147 -158 -244q121 -78 121 -227q0 -156 -114.5 -239.5 t-290.5 -83.5q-188 0 -301 88t-117 237h221q0 -74 53.5 -116t145.5 -42q88 0 135 38t47 104q0 63 -61.5 102t-212.5 64q-377 68 -377 305zM295 709q0 -74 60 -113t220 -66l74 -14q115 53 115 150q0 74 -57.5 110.5t-214.5 65.5l-91 18q-106 -49 -106 -151z" />
<glyph unicode="&#xa8;" horiz-adv-x="698" d="M20 1306.5q0 53.5 37.5 89.5t92.5 36q53 0 89.5 -36t36.5 -89.5t-36.5 -89t-89.5 -35.5q-55 0 -92.5 35.5t-37.5 89zM422 1307q0 53 37 88q37 37 90 37t90 -37q39 -35 39 -88.5t-39 -89.5q-37 -35 -90 -35t-90 35q-37 37 -37 90z" />
<glyph unicode="&#xa9;" horiz-adv-x="1222" d="M61 974.5q0 243.5 152 401.5q154 158 399.5 158t397 -157.5t151.5 -401.5t-151.5 -401.5t-397 -157.5t-399.5 157q-152 158 -152 401.5zM196.5 975q0.5 -184 114.5 -309q115 -123 301 -123t299 123q115 125 115 309q0 188 -115 309q-115 123 -299 123q-186 0 -301 -123 q-115 -125 -114.5 -309zM324 975q0 129 82.5 213t211.5 84q213 0 267 -209h-160q-27 70 -107 70q-63 0 -101 -44.5t-38 -113.5q0 -72 38 -116t101 -44q88 0 117 78h154q-45 -215 -271 -215q-131 0 -212.5 83t-81.5 214z" />
<glyph unicode="&#xaa;" horiz-adv-x="786" d="M88 920q0 174 221 210l199 37v29q0 111 -117 111q-55 0 -87 -26t-32 -73h-166q6 113 83 180.5t202 67.5q135 0 210 -66.5t75 -189.5v-465h-146l-8 82q-78 -96 -215 -96q-100 0 -159.5 53t-59.5 146zM256 932q0 -68 88 -68q92 0 133 60q31 39 31 90v28l-166 -30 q-86 -18 -86 -80z" />
<glyph unicode="&#xab;" horiz-adv-x="964" d="M25 496v34l258 383h213l-271 -401l271 -399h-213zM469 496v34l258 383h213l-270 -401l270 -399h-213z" />
<glyph unicode="&#xac;" horiz-adv-x="1220" d="M82 741v160h1065v-588h-156v428h-909z" />
<glyph unicode="&#xad;" horiz-adv-x="747" d="M51 434v195h645v-195h-645z" />
<glyph unicode="&#xae;" horiz-adv-x="1222" d="M61 974.5q0 243.5 152 401.5q154 158 399.5 158t397 -157.5t151.5 -401.5t-151.5 -401.5t-397 -157.5t-399.5 157q-152 158 -152 401.5zM196.5 975q0.5 -184 114.5 -309q115 -123 301 -123t299 123q115 125 115 309q0 188 -115 309q-115 123 -299 123q-186 0 -301 -123 q-115 -125 -114.5 -309zM401 686v574h222q98 0 156.5 -53.5t58.5 -139.5q0 -104 -95 -156l119 -225h-172l-90 199h-49v-199h-150zM551 995h59q78 0 78 70q0 72 -78 72h-59v-142z" />
<glyph unicode="&#xaf;" horiz-adv-x="593" d="M20 1212v170h553v-170h-553z" />
<glyph unicode="&#xb0;" horiz-adv-x="714" d="M45 1171q0 135 88 222q88 86 221 86q137 0 226 -86q90 -84 90 -221.5t-90 -223.5q-90 -84 -226 -84q-131 0 -221 84q-88 86 -88 223zM197 1171.5q0 -71.5 45 -116.5t112 -45q72 0 118 45t46 116.5t-46 116.5t-118 45q-68 0 -112.5 -45t-44.5 -116.5z" />
<glyph unicode="&#xb1;" horiz-adv-x="966" d="M61 160v194h844v-194h-844zM61 801v194h324v326h197v-326h323v-194h-323v-324h-197v324h-324z" />
<glyph unicode="&#xb2;" horiz-adv-x="661" d="M66 1386q-2 119 73.5 193t196.5 74q127 0 194.5 -62.5t67.5 -173.5q0 -113 -109 -231l-176 -191h287v-159h-522v122l262 285q86 96 86 162q0 90 -92 90q-98 0 -98 -109h-170z" />
<glyph unicode="&#xb3;" horiz-adv-x="720" d="M74 1081h168q4 -104 125 -104q49 0 79.5 27.5t30.5 72.5q0 104 -147 105h-51v137h49q121 0 121 92q8 59 -56 80q-70 20 -112 -23q-27 -27 -23 -69h-170q0 119 71.5 186.5t194.5 67.5q121 0 192.5 -66t71.5 -170q0 -119 -106 -164q135 -43 135 -184q0 -115 -77.5 -181.5 t-207.5 -66.5q-135 0 -211.5 68.5t-76.5 191.5z" />
<glyph unicode="&#xb4;" horiz-adv-x="538" d="M20 1176l224 323h274l-303 -323h-195z" />
<glyph unicode="&#xb5;" horiz-adv-x="1114" d="M150 -440v1476h217v-628q0 -219 172 -220q94 0 152.5 75t58.5 206v567h217v-1036h-191l-14 139q-82 -162 -281 -162q-59 0 -114 17v-434h-217z" />
<glyph unicode="&#xb6;" horiz-adv-x="1243" d="M51 1032q0 178 117 289q115 113 301 113h733v-148h-176v-1450h-147v1450h-224v-1450h-149v801h-37q-184 0 -301 110.5t-117 284.5z" />
<glyph unicode="&#xb7;" horiz-adv-x="432" d="M72 532q0 59 41 100.5t102 41.5t103 -41.5t42 -100.5q0 -61 -42 -103t-103 -42t-102 42t-41 103z" />
<glyph unicode="&#xb8;" horiz-adv-x="448" d="M20 -401l72 102q43 -51 117 -51q82 0 82 65.5t-80 65.5q-33 0 -64 -8l-41 14l56 225h112l-28 -125q82 0 132 -46t50 -124q0 -88 -60.5 -138t-158.5 -50q-119 0 -189 70z" />
<glyph unicode="&#xb9;" d="M63 1395v129q197 -1 226 114h125v-802h-170v559h-181z" />
<glyph unicode="&#xba;" horiz-adv-x="901" d="M72 1087q0 166 106 267q109 102 273 102q162 0 270 -102q106 -100 106 -267q0 -164 -106 -264q-109 -102 -270 -102q-164 0 -273 102q-106 100 -106 264zM248 1090q0 -94 56 -155t149 -61q88 0 144 61.5t56 154t-56 153t-144 60.5q-90 0 -147.5 -60.5t-57.5 -152.5z" />
<glyph unicode="&#xbb;" horiz-adv-x="964" d="M25 113l270 399l-270 401h213l258 -383v-34l-258 -383h-213zM469 113l270 399l-270 401h213l258 -383v-34l-258 -383h-213z" />
<glyph unicode="&#xbc;" horiz-adv-x="1501" d="M63 1190v129q197 0 226 115h125v-803h-170v559h-181zM176 0l819 1434h234l-819 -1434h-234zM795 139v135l321 529h211v-514h109v-150h-109v-139h-170v139h-362zM973 289h186v309l-22 -45z" />
<glyph unicode="&#xbd;" horiz-adv-x="1503" d="M63 1190v129q197 0 226 115h125v-803h-170v559h-181zM176 0l819 1434h234l-819 -1434h-234zM905 551q-2 119 74 192.5t197 73.5q127 0 194.5 -62.5t67.5 -172.5q0 -113 -109 -232l-176 -190h287v-160h-522v123l262 285q86 96 86 161q0 90 -92 90q-98 0 -99 -108h-170z " />
<glyph unicode="&#xbe;" horiz-adv-x="1658" d="M74 877h168q4 -104 125 -105q49 0 79.5 27.5t30.5 72.5q0 104 -147 105h-51v137h49q121 0 121 92q8 59 -56 80q-70 20 -112 -22q-27 -27 -23 -70h-170q0 119 71.5 186.5t194.5 67.5q121 0 192.5 -66t71.5 -170q0 -119 -106 -163q135 -43 135 -185q0 -115 -77.5 -181.5 t-207.5 -66.5q-135 0 -211.5 69t-76.5 192zM334 0l819 1434h233l-819 -1434h-233zM952 139v135l322 529h211v-514h108v-150h-108v-139h-170v139h-363zM1130 289h187v309l-23 -45z" />
<glyph unicode="&#xbf;" horiz-adv-x="876" d="M27 -39q0 195 112 311q18 18 70.5 66.5t74 72t43 62.5t21.5 76v61h219v-69q0 -139 -116 -246q-8 -6 -37 -30.5t-39 -34t-34 -33t-35 -38t-27.5 -40t-23.5 -46t-13 -49t-6 -57.5q0 -104 56 -162.5t150 -58.5q104 0 162 61.5t58 172.5h206q-4 -193 -123 -302 q-118 -110 -298.5 -110t-299.5 104q-121 104 -120 289zM311 911.5q0 61.5 41 102.5q43 41 104.5 41t102.5 -41q43 -41 43 -102.5t-43 -102.5q-41 -39 -102.5 -39t-104.5 39q-41 41 -41 102.5z" />
<glyph unicode="&#xc0;" horiz-adv-x="1445" d="M33 0l567 1434h246l567 -1434h-252l-137 350h-604l-135 -350h-252zM336 1735h315l193 -234h-228zM496 557h454l-202 512l-27 78l-27 -78z" />
<glyph unicode="&#xc1;" horiz-adv-x="1445" d="M33 0l567 1434h246l567 -1434h-252l-137 350h-604l-135 -350h-252zM496 557h454l-202 512l-27 78l-27 -78zM582 1501l194 234h314l-279 -234h-229z" />
<glyph unicode="&#xc2;" horiz-adv-x="1445" d="M33 0l567 1434h246l567 -1434h-252l-137 350h-604l-135 -350h-252zM354 1499l303 244h131l304 -244h-252l-119 109l-117 -109h-250zM496 557h454l-202 512l-27 78l-27 -78z" />
<glyph unicode="&#xc3;" horiz-adv-x="1445" d="M33 0l567 1434h246l567 -1434h-252l-137 350h-604l-135 -350h-252zM375 1503q0 125 56.5 197t162.5 72q66 0 116 -34t84.5 -68t63.5 -34q76 0 76 117h135q0 -125 -56.5 -196.5t-162.5 -71.5q-66 0 -116 33.5t-85 67.5t-63 34q-76 0 -76 -117h-135zM496 557h454l-202 512 l-27 78l-27 -78z" />
<glyph unicode="&#xc4;" horiz-adv-x="1445" d="M33 0l567 1434h246l567 -1434h-252l-137 350h-604l-135 -350h-252zM391 1622q0 53 37 90t92 37q53 0 90 -37t37 -90q0 -51 -37 -88t-90 -37q-55 0 -92 36t-37 89zM496 557h454l-202 512l-27 78l-27 -78zM793 1622q0 53 36.5 90t90 37t91.5 -37t38 -90q0 -51 -38 -88 t-91.5 -37t-90 36t-36.5 89z" />
<glyph unicode="&#xc5;" horiz-adv-x="1445" d="M33 0l567 1434h246l567 -1434h-252l-137 350h-604l-135 -350h-252zM496 557h454l-202 512l-27 78l-27 -78zM514 1683q0 86 58.5 143.5t146.5 57.5q90 0 147.5 -57.5t57.5 -143.5t-57.5 -142t-147.5 -56q-88 0 -146.5 57t-58.5 141zM643 1683q0 -31 22.5 -54t53.5 -23 q35 0 57.5 23.5t22.5 53.5q0 35 -22.5 57.5t-57.5 22.5q-33 0 -54.5 -22.5t-21.5 -57.5z" />
<glyph unicode="&#xc6;" horiz-adv-x="1931" d="M18 0l930 1434h889v-215h-575v-375h501v-213h-501v-416h575v-215h-807v354h-504l-235 -354h-273zM651 555h379v596l-43 -80z" />
<glyph unicode="&#xc7;" horiz-adv-x="1499" d="M78 717q0 319 201 532q199 211 512 211q254 0 419.5 -123t227.5 -346h-254q-92 254 -393 254q-209 0 -340 -149q-131 -145 -132 -379q0 -229 131.5 -379t344.5 -150q307 0 401 265h246q-123 -455 -604 -478l-19 -88q82 0 132 -46t50 -124q0 -88 -60 -138t-159 -50 q-119 0 -188 70l72 102q43 -51 116 -51q82 0 82 65.5t-80 65.5q-33 0 -63 -8l-41 14l45 190q-287 23 -467 228t-180 512z" />
<glyph unicode="&#xc8;" horiz-adv-x="1052" d="M154 0v1434h804v-215h-575v-375h502v-213h-502v-416h575v-215h-804zM190 1735h316l192 -234h-227z" />
<glyph unicode="&#xc9;" horiz-adv-x="1052" d="M154 0v1434h804v-215h-575v-375h502v-213h-502v-416h575v-215h-804zM434 1501l195 234h313l-278 -234h-230z" />
<glyph unicode="&#xca;" horiz-adv-x="1052" d="M154 0v1434h804v-215h-575v-375h502v-213h-502v-416h575v-215h-804zM201 1499l303 244h131l303 -244h-252l-119 109l-116 -109h-250z" />
<glyph unicode="&#xcb;" horiz-adv-x="1052" d="M154 0v1434h804v-215h-575v-375h502v-213h-502v-416h575v-215h-804zM240 1622q0 53 37 90t92 37q53 0 90 -37t37 -90q0 -51 -37 -88t-90 -37q-55 0 -92 36t-37 89zM641 1622q0 53 37 90t90 37t91 -37t38 -90q0 -51 -38 -88t-91 -37t-90 36t-37 89z" />
<glyph unicode="&#xcc;" horiz-adv-x="536" d="M-117 1735h316l192 -234h-227zM154 0v1434h229v-1434h-229z" />
<glyph unicode="&#xcd;" horiz-adv-x="536" d="M125 1501l194 234h314l-279 -234h-229zM154 0v1434h229v-1434h-229z" />
<glyph unicode="&#xce;" horiz-adv-x="536" d="M-98 1499l303 244h131l303 -244h-252l-119 109l-116 -109h-250zM154 0v1434h229v-1434h-229z" />
<glyph unicode="&#xcf;" horiz-adv-x="536" d="M-59 1622q0 53 37 90t92 37q53 0 90 -37t37 -90q0 -51 -37 -88t-90 -37q-55 0 -92 36t-37 89zM154 0v1434h229v-1434h-229zM342 1622q0 53 37 90t90 37t91 -37t38 -90q0 -51 -38 -88t-91 -37t-90 36t-37 89z" />
<glyph unicode="&#xd0;" horiz-adv-x="1515" d="M6 647v168h166v619h524q334 0 533 -199q201 -197 201 -518q0 -324 -201 -520q-199 -197 -533 -197h-524v647h-166zM401 215h295q233 0 365.5 132t132.5 369.5t-131 370t-367 132.5h-295v-404h238v-168h-238v-432z" />
<glyph unicode="&#xd1;" horiz-adv-x="1474" d="M154 0v1434h225l653 -953l62 -96v1049h229v-1434h-227l-658 954l-55 90v-1044h-229zM389 1503q0 125 56.5 197t162.5 72q66 0 116 -34t85 -68t63 -34q76 0 76 117h135q0 -125 -56 -196.5t-163 -71.5q-66 0 -116 33.5t-84.5 67.5t-63.5 34q-76 0 -76 -117h-135z" />
<glyph unicode="&#xd2;" horiz-adv-x="1632" d="M78 719q0 319 207 530q209 211 532.5 211t528.5 -211q207 -211 206 -530q0 -322 -206 -535q-205 -211 -528.5 -211t-532.5 211q-207 213 -207 535zM319 718.5q0 -231.5 137.5 -381t360.5 -149.5q221 0 358.5 149.5t137.5 381t-137 377.5q-137 150 -359 149 q-223 0 -360 -149q-138 -146 -138 -377.5zM430 1755h315l193 -233h-227z" />
<glyph unicode="&#xd3;" horiz-adv-x="1632" d="M78 719q0 319 207 530q209 211 532.5 211t528.5 -211q207 -211 206 -530q0 -322 -206 -535q-205 -211 -528.5 -211t-532.5 211q-207 213 -207 535zM319 718.5q0 -231.5 137.5 -381t360.5 -149.5q221 0 358.5 149.5t137.5 381t-137 377.5q-137 150 -359 149 q-223 0 -360 -149q-138 -146 -138 -377.5zM676 1522l194 233h314l-279 -233h-229z" />
<glyph unicode="&#xd4;" horiz-adv-x="1632" d="M78 719q0 319 207 530q209 211 532.5 211t528.5 -211q207 -211 206 -530q0 -322 -206 -535q-205 -211 -528.5 -211t-532.5 211q-207 213 -207 535zM319 718.5q0 -231.5 137.5 -381t360.5 -149.5q221 0 358.5 149.5t137.5 381t-137 377.5q-137 150 -359 149 q-223 0 -360 -149q-138 -146 -138 -377.5zM449 1520l303 243h131l303 -243h-252l-119 108l-117 -108h-249z" />
<glyph unicode="&#xd5;" horiz-adv-x="1632" d="M78 719q0 319 207 530q209 211 532.5 211t528.5 -211q207 -211 206 -530q0 -322 -206 -535q-205 -211 -528.5 -211t-532.5 211q-207 213 -207 535zM319 718.5q0 -231.5 137.5 -381t360.5 -149.5q221 0 358.5 149.5t137.5 381t-137 377.5q-137 150 -359 149 q-223 0 -360 -149q-138 -146 -138 -377.5zM469 1524q0 125 56.5 196.5t162.5 71.5q66 0 116 -34t85 -67.5t63 -33.5q76 0 76 117h135q0 -125 -56 -197t-163 -72q-66 0 -116 34t-84.5 67.5t-63.5 33.5q-76 0 -76 -116h-135z" />
<glyph unicode="&#xd6;" horiz-adv-x="1632" d="M78 719q0 319 207 530q209 211 532.5 211t528.5 -211q207 -211 206 -530q0 -322 -206 -535q-205 -211 -528.5 -211t-532.5 211q-207 213 -207 535zM319 718.5q0 -231.5 137.5 -381t360.5 -149.5q221 0 358.5 149.5t137.5 381t-137 377.5q-137 150 -359 149 q-223 0 -360 -149q-138 -146 -138 -377.5zM485 1642.5q0 53.5 37 90t92 36.5q53 0 90 -36.5t37 -90.5q0 -51 -36.5 -87.5t-90.5 -36.5q-55 0 -92 35.5t-37 89zM887 1642.5q0 53.5 37 90t90 36.5t91 -37t38 -90q0 -51 -38 -87.5t-91 -36.5t-90 35.5t-37 89z" />
<glyph unicode="&#xd7;" horiz-adv-x="874" d="M51 469l248 248l-248 248l137 137l248 -246l248 246l137 -139l-246 -248l246 -246l-139 -137l-244 246l-248 -246z" />
<glyph unicode="&#xd8;" horiz-adv-x="1632" d="M78 719q0 319 207 530q208 211 532 211q150 0 285 -53l98 172l170 -86l-102 -176q135 -100 209.5 -256t74.5 -342q0 -322 -206 -535q-205 -211 -529 -211q-147 0 -289 54l-100 -177l-170 84l104 183q-135 100 -209.5 256.5t-74.5 345.5zM319 719q0 -254 158 -402l514 897 q-90 31 -174 31q-223 0 -360 -149q-137 -145 -138 -377zM639 217q86 -29 178 -29q221 0 358.5 150t137.5 381q0 248 -160 397z" />
<glyph unicode="&#xd9;" horiz-adv-x="1413" d="M135 571v863h230v-863q0 -383 342 -383q340 0 340 383v863h231v-863q0 -287 -149.5 -442.5t-422 -155.5t-422 156t-149.5 442zM319 1735h316l192 -234h-227z" />
<glyph unicode="&#xda;" horiz-adv-x="1413" d="M135 571v863h230v-863q0 -383 342 -383q340 0 340 383v863h231v-863q0 -287 -149.5 -442.5t-422 -155.5t-422 156t-149.5 442zM565 1501l195 234h313l-278 -234h-230z" />
<glyph unicode="&#xdb;" horiz-adv-x="1413" d="M135 571v863h230v-863q0 -383 342 -383q340 0 340 383v863h231v-863q0 -287 -149.5 -442.5t-422 -155.5t-422 156t-149.5 442zM338 1499l303 244h131l303 -244h-252l-118 109l-117 -109h-250z" />
<glyph unicode="&#xdc;" horiz-adv-x="1413" d="M135 571v863h230v-863q0 -383 342 -383q340 0 340 383v863h231v-863q0 -287 -149.5 -442.5t-422 -155.5t-422 156t-149.5 442zM375 1622q0 53 37 90t92 37q53 0 90 -37t37 -90q0 -51 -37 -88t-90 -37q-55 0 -92 36t-37 89zM776 1622q0 53 37 90t90 37t91 -37t38 -90 q0 -51 -38 -88t-91 -37t-90 36t-37 89z" />
<glyph unicode="&#xdd;" horiz-adv-x="1392" d="M25 1434h268l350 -555l51 -97l54 97l352 555h268l-555 -895v-539h-233v539zM555 1501l195 234h313l-279 -234h-229z" />
<glyph unicode="&#xde;" horiz-adv-x="1177" d="M154 0v1434h229v-220h250q215 0 344 -116.5t129 -309.5q0 -188 -129 -305q-125 -117 -344 -116h-250v-367h-229zM383 582h250q111 0 175 54t64 152.5t-64 153.5t-175 55h-250v-415z" />
<glyph unicode="&#xdf;" horiz-adv-x="1159" d="M145 0v1075q1 434 435 434v-206q-205 0 -205 -224v-43h672v-174l-267 -416q170 -25 271 -147q100 -121 100 -285q0 -219 -125 -342t-356 -123q-80 0 -174 17l6 219q94 -23 147 -23q129 0 200 64.5t71 185.5q0 117 -79 182.5t-214 65.5h-97v152l267 424h-422v-836h-230z " />
<glyph unicode="&#xe0;" horiz-adv-x="1032" d="M88 272q0 248 303 306l295 53v47q0 186 -170 186q-82 0 -134 -45t-52 -119h-211q6 154 114.5 256.5t282.5 102.5q184 0 286.5 -97.5t102.5 -279.5v-682h-192l-11 135q-92 -158 -305 -158q-141 0 -225 80t-84 215zM127 1499h274l224 -323h-195zM307 283q0 -53 37 -85 t105 -32q125 0 188 100q49 70 49 164v37l-248 -53q-131 -27 -131 -131z" />
<glyph unicode="&#xe1;" horiz-adv-x="1032" d="M88 272q0 248 303 306l295 53v47q0 186 -170 186q-82 0 -134 -45t-52 -119h-211q6 154 114.5 256.5t282.5 102.5q184 0 286.5 -97.5t102.5 -279.5v-682h-192l-11 135q-92 -158 -305 -158q-141 0 -225 80t-84 215zM307 283q0 -53 37 -85t105 -32q125 0 188 100 q49 70 49 164v37l-248 -53q-131 -27 -131 -131zM406 1176l223 323h274l-303 -323h-194z" />
<glyph unicode="&#xe2;" horiz-adv-x="1032" d="M88 272q0 248 303 306l295 53v47q0 186 -170 186q-82 0 -134 -45t-52 -119h-211q6 154 114.5 256.5t282.5 102.5q184 0 286.5 -97.5t102.5 -279.5v-682h-192l-11 135q-92 -158 -305 -158q-141 0 -225 80t-84 215zM164 1176l282 323h152l281 -323h-230l-127 176l-129 -176 h-229zM307 283q0 -53 37 -85t105 -32q125 0 188 100q49 70 49 164v37l-248 -53q-131 -27 -131 -131z" />
<glyph unicode="&#xe3;" horiz-adv-x="1032" d="M88 272q0 248 303 306l295 53v47q0 186 -170 186q-82 0 -134 -45t-52 -119h-211q6 154 114.5 256.5t282.5 102.5q184 0 286.5 -97.5t102.5 -279.5v-682h-192l-11 135q-92 -158 -305 -158q-141 0 -225 80t-84 215zM180 1184q0 129 56.5 202.5t162.5 73.5q57 0 99.5 -22.5 t62 -49t46 -49t57.5 -22.5q76 0 75 125h135q0 -127 -56 -202t-163 -75q-57 0 -99 22.5t-61.5 50.5t-46 50.5t-57.5 22.5q-76 0 -76 -127h-135zM307 283q0 -53 37 -85t105 -32q125 0 188 100q49 70 49 164v37l-248 -53q-131 -27 -131 -131z" />
<glyph unicode="&#xe4;" horiz-adv-x="1032" d="M88 272q0 248 303 306l295 53v47q0 186 -170 186q-82 0 -134 -45t-52 -119h-211q6 154 114.5 256.5t282.5 102.5q184 0 286.5 -97.5t102.5 -279.5v-682h-192l-11 135q-92 -158 -305 -158q-141 0 -225 80t-84 215zM193 1306.5q0 53.5 37 89.5t92 36q53 0 90 -36t37 -89.5 t-37 -89t-90 -35.5q-55 0 -92 35.5t-37 89zM307 283q0 -53 37 -85t105 -32q125 0 188 100q49 70 49 164v37l-248 -53q-131 -27 -131 -131zM594 1307q0 53 37 88q37 37 90 37t90 -37q39 -35 39 -88.5t-39 -89.5q-37 -35 -90 -35t-90 35q-37 37 -37 90z" />
<glyph unicode="&#xe5;" horiz-adv-x="1032" d="M88 272q0 248 303 306l295 53v47q0 186 -170 186q-82 0 -134 -45t-52 -119h-211q6 154 114.5 256.5t282.5 102.5q184 0 286.5 -97.5t102.5 -279.5v-682h-192l-11 135q-92 -158 -305 -158q-141 0 -225 80t-84 215zM303 1352q0 94 62.5 155.5t158.5 61.5q98 0 161 -61.5 t63 -155.5q0 -92 -62.5 -153.5t-161.5 -61.5q-96 0 -158.5 61.5t-62.5 153.5zM307 283q0 -53 37 -85t105 -32q125 0 188 100q49 70 49 164v37l-248 -53q-131 -27 -131 -131zM428 1354q0 -41 27.5 -70t68.5 -29q43 0 71 29t28 70t-28 68.5t-71 27.5q-41 0 -68.5 -27.5 t-27.5 -68.5z" />
<glyph unicode="&#xe6;" horiz-adv-x="1755" d="M88 268q0 250 303 307l295 56v41q0 193 -174 192q-82 0 -132 -44t-50 -120h-211q6 158 112.5 258.5t280.5 100.5q221 0 324 -141q141 141 356 141q217 0 346 -139.5t129 -393.5v-84h-756q8 -125 87 -198.5t200 -73.5q190 0 248 147h213q-49 -164 -169 -252t-298 -88 q-270 0 -414 205q-131 -205 -370 -205q-147 0 -233.5 80t-86.5 211zM307 283q0 -53 38 -85t104 -32q125 0 186 92q51 70 51 154v55l-233 -51q-76 -14 -111 -45t-35 -88zM913 612h535q-2 117 -72.5 186.5t-185.5 69.5t-190.5 -70.5t-86.5 -185.5z" />
<glyph unicode="&#xe7;" horiz-adv-x="1126" d="M70 516q0 238 143 389q146 154 367 154q186 0 311 -96.5t158 -270.5h-213q-27 80 -93.5 123t-158.5 43q-123 0 -207 -96q-82 -94 -82 -246q0 -147 82 -242q84 -96 211 -96q90 0 157.5 45t90.5 119h215q-37 -162 -147.5 -255t-274.5 -107l-21 -93q82 0 132.5 -46 t50.5 -124q0 -88 -60.5 -138t-159.5 -50q-119 0 -188 70l72 102q43 -51 116 -51q82 0 82 65.5t-80 65.5q-33 0 -63 -8l-41 14l47 195q-195 20 -323 168q-123 147 -123 366z" />
<glyph unicode="&#xe8;" horiz-adv-x="1138" d="M70 516q0 238 139 389q139 154 366 154q217 0 346.5 -139.5t129.5 -393.5v-84h-756q8 -125 87 -198.5t200 -73.5q188 0 247 147h213q-49 -164 -168.5 -252t-298.5 -88q-225 0 -366 148q-139 150 -139 391zM172 1499h274l224 -323h-195zM297 612h534q-2 117 -72.5 186.5 t-185 69.5t-190.5 -70.5t-86 -185.5z" />
<glyph unicode="&#xe9;" horiz-adv-x="1138" d="M70 516q0 238 139 389q139 154 366 154q217 0 346.5 -139.5t129.5 -393.5v-84h-756q8 -125 87 -198.5t200 -73.5q188 0 247 147h213q-49 -164 -168.5 -252t-298.5 -88q-225 0 -366 148q-139 150 -139 391zM297 612h534q-2 117 -72.5 186.5t-185 69.5t-190.5 -70.5 t-86 -185.5zM451 1176l223 323h274l-303 -323h-194z" />
<glyph unicode="&#xea;" horiz-adv-x="1138" d="M70 516q0 238 139 389q139 154 366 154q217 0 346.5 -139.5t129.5 -393.5v-84h-756q8 -125 87 -198.5t200 -73.5q188 0 247 147h213q-49 -164 -168.5 -252t-298.5 -88q-225 0 -366 148q-139 150 -139 391zM207 1176l282 323h152l281 -323h-230l-127 176l-129 -176h-229z M297 612h534q-2 117 -72.5 186.5t-185 69.5t-190.5 -70.5t-86 -185.5z" />
<glyph unicode="&#xeb;" horiz-adv-x="1138" d="M70 516q0 238 139 389q139 154 366 154q217 0 346.5 -139.5t129.5 -393.5v-84h-756q8 -125 87 -198.5t200 -73.5q188 0 247 147h213q-49 -164 -168.5 -252t-298.5 -88q-225 0 -366 148q-139 150 -139 391zM244 1306.5q0 53.5 37 89.5t92 36q53 0 90 -36t37 -89.5t-37 -89 t-90 -35.5q-55 0 -92 35.5t-37 89zM297 612h534q-2 117 -72.5 186.5t-185 69.5t-190.5 -70.5t-86 -185.5zM645 1307q0 53 37 88q37 37 90 37t90 -37q39 -35 39 -88.5t-39 -89.5q-37 -35 -90 -35t-90 35q-37 37 -37 90z" />
<glyph unicode="&#xec;" d="M-131 1499h274l224 -323h-195zM154 0v1036h217v-1036h-217z" />
<glyph unicode="&#xed;" d="M145 1176l224 323h274l-303 -323h-195zM154 0v1036h217v-1036h-217z" />
<glyph unicode="&#xee;" d="M-94 1176l282 323h152l281 -323h-230l-127 176l-129 -176h-229zM154 0v1036h217v-1036h-217z" />
<glyph unicode="&#xef;" d="M-66 1306.5q0 53.5 37 89.5t92 36q53 0 90 -36t37 -89.5t-36.5 -89t-90.5 -35.5q-55 0 -92 35.5t-37 89zM154 0v1036h217v-1036h-217zM336 1307q0 53 37 88q37 37 90 37t90 -37q39 -35 39 -88.5t-39 -89.5q-37 -35 -90 -35t-90 35q-37 37 -37 90z" />
<glyph unicode="&#xf0;" horiz-adv-x="1155" d="M78 475q0 215 137 352q141 139 352 144l-110 145h-316v176h181l-156 203h266l154 -203h307v-176h-172l231 -301q127 -164 127 -340q0 -221 -143 -358q-143 -139 -358 -140q-217 0 -361 140q-139 139 -139 358zM297 475q0 -129 78 -217q78 -84 202.5 -84t203.5 85t79 216 q0 119 -78 215l-6 8q-76 76 -198 76q-125 0 -203 -84t-78 -215z" />
<glyph unicode="&#xf1;" horiz-adv-x="1122" d="M150 0v1036h188l16 -139q86 162 285 162q160 0 248 -104.5t88 -282.5v-672h-219v629q0 106 -46 161.5t-130 55.5q-96 0 -154.5 -78t-58.5 -217v-551h-217zM229 1184q0 129 57 202.5t163 73.5q57 0 99 -22.5t61.5 -49t46 -49t57.5 -22.5q76 0 75 125h136 q0 -127 -56.5 -202t-162.5 -75q-57 0 -99.5 22.5t-62 50.5t-46 50.5t-57.5 22.5q-76 0 -75 -127h-136z" />
<glyph unicode="&#xf2;" horiz-adv-x="1206" d="M69 518q0 239 150 389q152 152 383.5 152t383 -151.5t151.5 -389t-151.5 -389.5t-383 -152t-383.5 152q-150 150 -150 389zM209 1499h274l224 -323h-195zM295 518.5q0 -149.5 86 -244.5q86 -96 223 -96t221 96q86 94 86 244t-86 244q-84 96 -221 96t-223 -96 q-86 -94 -86 -243.5z" />
<glyph unicode="&#xf3;" horiz-adv-x="1206" d="M69 518q0 239 150 389q152 152 383.5 152t383 -151.5t151.5 -389t-151.5 -389.5t-383 -152t-383.5 152q-150 150 -150 389zM295 518.5q0 -149.5 86 -244.5q86 -96 223 -96t221 96q86 94 86 244t-86 244q-84 96 -221 96t-223 -96q-86 -94 -86 -243.5zM487 1176l224 323 h274l-303 -323h-195z" />
<glyph unicode="&#xf4;" horiz-adv-x="1206" d="M69 518q0 239 150 389q152 152 383.5 152t383 -151.5t151.5 -389t-151.5 -389.5t-383 -152t-383.5 152q-150 150 -150 389zM244 1176l282 323h152l280 -323h-229l-127 176l-129 -176h-229zM295 518.5q0 -149.5 86 -244.5q86 -96 223 -96t221 96q86 94 86 244t-86 244 q-84 96 -221 96t-223 -96q-86 -94 -86 -243.5z" />
<glyph unicode="&#xf5;" horiz-adv-x="1206" d="M69 518q0 239 150 389q152 152 383.5 152t383 -151.5t151.5 -389t-151.5 -389.5t-383 -152t-383.5 152q-150 150 -150 389zM256 1184q0 129 56.5 202.5t162.5 73.5q57 0 99 -22.5t61.5 -49t46.5 -49t57 -22.5q76 0 76 125h135q0 -127 -56 -202t-163 -75q-57 0 -99 22.5 t-61.5 50.5t-46 50.5t-57.5 22.5q-76 0 -76 -127h-135zM295 518.5q0 -149.5 86 -244.5q86 -96 223 -96t221 96q86 94 86 244t-86 244q-84 96 -221 96t-223 -96q-86 -94 -86 -243.5z" />
<glyph unicode="&#xf6;" horiz-adv-x="1206" d="M69 518q0 239 150 389q152 152 383.5 152t383 -151.5t151.5 -389t-151.5 -389.5t-383 -152t-383.5 152q-150 150 -150 389zM272 1306.5q0 53.5 37 89.5t92 36q53 0 90 -36t37 -89.5t-36.5 -89t-90.5 -35.5q-55 0 -92 35.5t-37 89zM295 518.5q0 -149.5 86 -244.5 q86 -96 223 -96t221 96q86 94 86 244t-86 244q-84 96 -221 96t-223 -96q-86 -94 -86 -243.5zM674 1307q0 53 37 88q37 37 90 37t90 -37q39 -35 39 -88.5t-39 -89.5q-37 -35 -90 -35t-90 35q-37 37 -37 90z" />
<glyph unicode="&#xf7;" horiz-adv-x="966" d="M61 618v195h844v-195h-844zM330 333.5q0 57.5 40 97.5t99 40t100 -39t41 -98q0 -57 -41 -97t-100 -40t-99 39.5t-40 97zM330 1097.5q0 57.5 40 97.5t99 40t100 -39t41 -98q0 -57 -41 -96t-100 -39t-99 38.5t-40 96z" />
<glyph unicode="&#xf8;" horiz-adv-x="1206" d="M70 518q0 240 149 389q152 152 383 152q102 0 201 -35l86 162l119 -56l-90 -167q219 -154 219 -445q0 -238 -151.5 -389.5t-383.5 -151.5q-102 0 -194 33l-86 -162l-119 54l88 166q-221 154 -221 450zM295 518q0 -160 98 -258l312 582q-54 16 -101 16q-137 0 -223 -96 q-86 -94 -86 -244zM506 193q41 -14 98 -15q137 0 221 96q86 94 86 244q0 158 -96 254z" />
<glyph unicode="&#xf9;" horiz-adv-x="1101" d="M135 365v671h217v-628q0 -219 174 -220q94 0 151.5 75t57.5 206v567h217v-1036h-190l-14 139q-80 -162 -281 -162q-162 0 -247 102.5t-85 285.5zM156 1499h274l223 -323h-194z" />
<glyph unicode="&#xfa;" horiz-adv-x="1101" d="M135 365v671h217v-628q0 -219 174 -220q94 0 151.5 75t57.5 206v567h217v-1036h-190l-14 139q-80 -162 -281 -162q-162 0 -247 102.5t-85 285.5zM432 1176l223 323h275l-303 -323h-195z" />
<glyph unicode="&#xfb;" horiz-adv-x="1101" d="M135 365v671h217v-628q0 -219 174 -220q94 0 151.5 75t57.5 206v567h217v-1036h-190l-14 139q-80 -162 -281 -162q-162 0 -247 102.5t-85 285.5zM186 1176l283 323h152l280 -323h-229l-127 176l-129 -176h-230z" />
<glyph unicode="&#xfc;" horiz-adv-x="1101" d="M135 365v671h217v-628q0 -219 174 -220q94 0 151.5 75t57.5 206v567h217v-1036h-190l-14 139q-80 -162 -281 -162q-162 0 -247 102.5t-85 285.5zM215 1306.5q0 53.5 37 89.5t92 36q53 0 90 -36t37 -89.5t-37 -89t-90 -35.5q-55 0 -92 35.5t-37 89zM616 1307q0 53 37 88 q37 37 90.5 37t90.5 -37q39 -35 38.5 -88.5t-38.5 -89.5q-37 -35 -90.5 -35t-90.5 35q-37 37 -37 90z" />
<glyph unicode="&#xfd;" horiz-adv-x="1048" d="M27 1036h233l240 -694l20 -84l21 84l241 694h234l-549 -1476h-227l166 454zM403 1176l224 323h274l-303 -323h-195z" />
<glyph unicode="&#xfe;" horiz-adv-x="1261" d="M160 -440v1935h219v-588q111 152 330 152q211 0 346 -156q135 -154 135 -385t-137 -387q-135 -154 -346 -154q-223 0 -328 152v-569h-219zM373 498q0 -150 86 -232q90 -84 209 -84q129 0 213 94.5t84 242t-83 240.5t-212 93q-121 0 -209 -82q-84 -80 -88 -225v-47z" />
<glyph unicode="&#xff;" horiz-adv-x="1048" d="M27 1036h233l240 -694l20 -84l21 84l241 694h234l-549 -1476h-227l166 454zM190 1306.5q0 53.5 37 89.5t92 36q53 0 90 -36t37 -89.5t-36.5 -89t-90.5 -35.5q-55 0 -92 35.5t-37 89zM592 1307q0 53 37 88q37 37 90 37t90 -37q39 -35 39 -88.5t-39 -89.5q-37 -35 -90 -35 t-90 35q-37 37 -37 90z" />
<glyph unicode="&#x152;" horiz-adv-x="2232" d="M88 719q0 319 207 530q205 211 530 211q297 0 498 -194v168h805v-215h-576v-375h502v-213h-502v-416h576v-215h-805v168q-201 -195 -498 -195q-322 0 -530 211q-207 213 -207 535zM328 718.5q0 -231.5 137 -381t360 -149.5q221 0 359 150q139 152 139 381q0 227 -139 377 q-137 150 -359 149q-223 0 -360 -149q-137 -146 -137 -377.5z" />
<glyph unicode="&#x153;" horiz-adv-x="1978" d="M69.5 518.5q0.5 239.5 149.5 388.5q152 152 383 152q266 0 416 -191q141 190 397 191q217 0 346 -139.5t129 -393.5v-84h-755q8 -125 86.5 -198.5t199.5 -73.5q188 0 248 147h213q-49 -164 -169 -252t-298 -88q-258 0 -399 187q-150 -186 -414 -187q-231 0 -383 152 q-150 150 -149.5 389.5zM295 518.5q0 -149.5 86 -244.5q86 -96 223 -96q127 0 211 85t94 220v70q-10 135 -94 220t-211 85q-137 0 -223 -96q-86 -94 -86 -243.5zM1137 612h534q-2 117 -72.5 186.5t-185.5 69.5t-190.5 -70.5t-85.5 -185.5z" />
<glyph unicode="&#x178;" horiz-adv-x="1392" d="M25 1434h268l350 -555l51 -97l54 97l352 555h268l-555 -895v-539h-233v539zM365 1622q0 53 37 90t92 37q53 0 90 -37t37 -90q0 -51 -37 -88t-90 -37q-55 0 -92 36t-37 89zM766 1622q0 53 37 90t90 37t91 -37t38 -90q0 -51 -38 -88t-91 -37t-90 36t-37 89z" />
<glyph unicode="&#x2c6;" horiz-adv-x="755" d="M20 1176l283 323h152l280 -323h-229l-127 176l-129 -176h-230z" />
<glyph unicode="&#x2dc;" horiz-adv-x="735" d="M20 1184q0 129 57 202.5t163 73.5q57 0 99 -22.5t61.5 -49t46 -49t57.5 -22.5q76 0 76 125h135q0 -127 -56.5 -202t-162.5 -75q-57 0 -99.5 22.5t-62 50.5t-46 50.5t-57.5 22.5q-76 0 -75 -127h-136z" />
<glyph unicode="&#x2000;" horiz-adv-x="942" />
<glyph unicode="&#x2001;" horiz-adv-x="1884" />
<glyph unicode="&#x2002;" horiz-adv-x="942" />
<glyph unicode="&#x2003;" horiz-adv-x="1884" />
<glyph unicode="&#x2004;" horiz-adv-x="628" />
<glyph unicode="&#x2005;" horiz-adv-x="471" />
<glyph unicode="&#x2006;" horiz-adv-x="314" />
<glyph unicode="&#x2007;" horiz-adv-x="314" />
<glyph unicode="&#x2008;" horiz-adv-x="235" />
<glyph unicode="&#x2009;" horiz-adv-x="376" />
<glyph unicode="&#x200a;" horiz-adv-x="104" />
<glyph unicode="&#x2010;" horiz-adv-x="747" d="M51 434v195h645v-195h-645z" />
<glyph unicode="&#x2011;" horiz-adv-x="747" d="M51 434v195h645v-195h-645z" />
<glyph unicode="&#x2012;" horiz-adv-x="747" d="M51 434v195h645v-195h-645z" />
<glyph unicode="&#x2013;" horiz-adv-x="1054" d="M51 434v195h953v-195h-953z" />
<glyph unicode="&#x2014;" horiz-adv-x="1443" d="M51 434v195h1342v-195h-1342z" />
<glyph unicode="&#x2018;" horiz-adv-x="407" d="M63 1135q0 188 158 374l68 -24q-55 -106 -68 -232q53 -6 88 -42.5t35 -90.5q0 -57 -41 -97t-98 -40q-61 0 -101.5 42t-40.5 110z" />
<glyph unicode="&#x2019;" horiz-adv-x="407" d="M63 1356q0 57 40 98t100 41q61 0 101 -42t40 -110q0 -197 -160 -376l-65 24q51 104 67 232q-53 6 -88 43t-35 90z" />
<glyph unicode="&#x201a;" horiz-adv-x="407" d="M63 121q0 57 40 96t100 39q61 0 101 -42t40 -110q0 -195 -160 -374l-65 24q53 102 67 234q-55 6 -89 42t-34 91z" />
<glyph unicode="&#x201c;" horiz-adv-x="804" d="M63 1135q0 188 158 374l68 -24q-55 -106 -68 -232q53 -6 88 -42.5t35 -90.5q0 -57 -41 -97t-98 -40q-61 0 -101.5 42t-40.5 110zM459 1135q-1 188 157 374l68 -24q-55 -106 -68 -232q53 -6 88 -42.5t35 -90.5q0 -57 -41 -97t-98 -40q-61 0 -101 42t-40 110z" />
<glyph unicode="&#x201d;" horiz-adv-x="804" d="M63 1356q0 57 40 98t100 41q61 0 101 -42t40 -110q0 -197 -160 -376l-65 24q51 104 67 232q-53 6 -88 43t-35 90zM459 1356q0 57 41 98t98 41q61 0 101 -42t40 -110q0 -197 -159 -376l-66 24q51 104 68 232q-53 6 -88 43t-35 90z" />
<glyph unicode="&#x201e;" horiz-adv-x="813" d="M63 121q0 57 40 96t100 39q61 0 101 -42t40 -110q0 -195 -160 -374l-65 24q53 102 67 234q-55 6 -89 42t-34 91zM469 121q0 57 40 96t99 39q61 0 101.5 -42t40.5 -110q0 -195 -160 -374l-66 24q53 102 68 234q-55 6 -89 42t-34 91z" />
<glyph unicode="&#x2022;" horiz-adv-x="727" d="M74 530.5q0 124.5 82 206.5q84 84 206.5 84t206.5 -84t84 -206.5t-84 -206.5q-82 -82 -206.5 -82t-206.5 82t-82 206.5z" />
<glyph unicode="&#x2026;" horiz-adv-x="1347" d="M72 120.5q0 61.5 41 100.5q41 41 102 41t102 -41q43 -39 43 -100.5t-43 -102.5q-41 -41 -102 -41t-102 41t-41 102.5zM528 120.5q0 61.5 41 100.5q43 41 104.5 41t102.5 -41q43 -39 43 -100.5t-43 -102.5q-41 -41 -102.5 -41t-104.5 41q-41 41 -41 102.5zM987 120.5 q0 61.5 41 100.5q43 41 104.5 41t102.5 -41q43 -39 43 -100.5t-43 -102.5q-41 -41 -102.5 -41t-104.5 41q-41 41 -41 102.5z" />
<glyph unicode="&#x202f;" horiz-adv-x="376" />
<glyph unicode="&#x2039;" horiz-adv-x="552" d="M25 496v34l290 383h211l-301 -401l301 -399h-211z" />
<glyph unicode="&#x203a;" horiz-adv-x="552" d="M25 113l303 399l-303 401h213l288 -383v-34l-288 -383h-213z" />
<glyph unicode="&#x205f;" horiz-adv-x="471" />
<glyph unicode="&#x20ac;" horiz-adv-x="1230" d="M31 453v168h139q-2 20 -2 98q0 80 2 102h-139v168h164q51 223 185 347t329 124q414 0 491 -430h-248q-29 215 -243 215q-203 0 -277 -256h283v-168h-309q-4 -45 -5 -102q0 -78 2 -98h312v-168h-283q72 -264 277 -265q209 0 243 218h248q-49 -217 -168 -325t-323 -108 q-197 0 -331 126t-183 354h-164z" />
<glyph unicode="&#x2122;" horiz-adv-x="1269" d="M45 1296v138h440v-138h-145v-436h-147v436h-148zM557 860v574h176l131 -340l13 -33l8 33l135 340h174v-574h-147v316l-19 -58l-100 -258h-105l-100 258l-18 58v-316h-148z" />
<glyph unicode="&#x25fc;" horiz-adv-x="1034" d="M0 0v1034h1034v-1034h-1034z" />
</font>
</defs>
</svg>
